<svg width="1500" height="1500" viewBox="0 0 1500 1500" fill="none" xmlns="http://www.w3.org/2000/svg">
<g clip-path="url(#clip0_3_37)">
<path d="M750 245C883.934 245 1012.38 298.205 1107.09 392.911C1201.79 487.617 1255 616.066 1255 750C1255 883.934 1201.79 1012.38 1107.09 1107.09C1012.38 1201.79 883.934 1255 750 1255C616.066 1255 487.617 1201.79 392.911 1107.09C298.205 1012.38 245 883.934 245 750C245 616.066 298.205 487.617 392.911 392.911C487.617 298.205 616.066 245 750 245Z" fill="white" stroke="#0F899B" stroke-width="10"/>
<g filter="url(#filter0_d_3_37)">
<rect x="70" y="541" width="1360" height="419" rx="170" fill="#0F899B"/>
<rect x="67.5" y="538.5" width="1365" height="424" rx="172.5" stroke="white" stroke-width="5"/>
</g>
<g filter="url(#filter1_d_3_37)">
<mask id="path-4-outside-1_3_37" maskUnits="userSpaceOnUse" x="309" y="645" width="738" height="227" fill="black">
<rect fill="white" x="309" y="645" width="738" height="227"/>
<path d="M409.402 866.871C390.079 866.871 373.263 862.861 358.953 854.84C344.643 846.728 333.569 835.289 325.73 820.523C317.983 805.667 314.109 788.121 314.109 767.887V761.188C314.109 741.865 317.846 724.775 325.32 709.918C332.885 694.97 343.641 683.258 357.586 674.781C371.531 666.305 388.12 662.066 407.352 662.066C420.841 662.066 433.465 663.98 445.223 667.809C457.072 671.637 467.645 677.47 476.941 685.309V733.434H447.273L443.172 703.219C440.164 701.031 436.883 699.163 433.328 697.613C429.773 696.064 425.9 694.879 421.707 694.059C417.605 693.238 413.139 692.828 408.309 692.828C397.007 692.828 387.299 695.608 379.188 701.168C371.076 706.728 364.832 714.612 360.457 724.82C356.173 734.938 354.031 746.969 354.031 760.914V767.887C354.031 781.832 356.31 793.909 360.867 804.117C365.424 814.326 371.896 822.255 380.281 827.906C388.667 833.466 398.602 836.246 410.086 836.246C415.828 836.246 421.57 835.608 427.312 834.332C433.146 832.965 438.432 831.233 443.172 829.137L447.273 801.109H476.941V848.688C469.194 853.792 459.533 858.121 447.957 861.676C436.382 865.139 423.53 866.871 409.402 866.871ZM566.902 866.871C552.319 866.871 539.786 863.681 529.305 857.301C518.823 850.921 510.802 842.079 505.242 830.777C499.682 819.384 496.902 806.305 496.902 791.539V788.668C496.902 773.993 499.682 761.005 505.242 749.703C510.802 738.31 518.777 729.423 529.168 723.043C539.65 716.572 552.137 713.336 566.629 713.336C581.303 713.336 593.836 716.572 604.227 723.043C614.617 729.423 622.592 738.264 628.152 749.566C633.712 760.868 636.492 773.902 636.492 788.668V791.539C636.492 806.305 633.712 819.384 628.152 830.777C622.592 842.079 614.617 850.921 604.227 857.301C593.836 863.681 581.395 866.871 566.902 866.871ZM566.902 836.246C573.829 836.246 579.48 834.378 583.855 830.641C588.23 826.904 591.466 821.708 593.562 815.055C595.659 808.31 596.707 800.471 596.707 791.539V788.668C596.707 779.918 595.659 772.216 593.562 765.562C591.466 758.818 588.185 753.577 583.719 749.84C579.344 746.012 573.647 744.098 566.629 744.098C559.793 744.098 554.142 746.012 549.676 749.84C545.21 753.577 541.928 758.818 539.832 765.562C537.827 772.216 536.824 779.918 536.824 788.668V791.539C536.824 800.471 537.827 808.31 539.832 815.055C541.928 821.799 545.21 827.04 549.676 830.777C554.142 834.423 559.884 836.246 566.902 836.246ZM712.918 866.871C701.16 866.871 691.043 863.863 682.566 857.848C674.181 851.741 667.755 843.264 663.289 832.418C658.823 821.48 656.59 808.72 656.59 794.137V791.266C656.59 775.68 658.823 762.053 663.289 750.387C667.846 738.72 674.318 729.651 682.703 723.18C691.089 716.617 701.115 713.336 712.781 713.336C720.893 713.336 728.003 714.977 734.109 718.258C740.216 721.448 745.503 726.005 749.969 731.93V678.883L728.641 674.781V650.719H749.969H789.891V835.973L809.031 840.074V864H755.301L752.293 845.953C747.645 852.789 742.085 857.984 735.613 861.539C729.233 865.094 721.668 866.871 712.918 866.871ZM724.812 835.836C730.372 835.836 735.249 834.651 739.441 832.281C743.634 829.911 747.143 826.493 749.969 822.027V759.273C747.234 754.534 743.771 750.888 739.578 748.336C735.385 745.693 730.555 744.371 725.086 744.371C718.432 744.371 712.964 746.376 708.68 750.387C704.487 754.306 701.388 759.775 699.383 766.793C697.469 773.811 696.512 781.969 696.512 791.266V794.137C696.512 807.079 698.699 817.288 703.074 824.762C707.449 832.145 714.695 835.836 724.812 835.836ZM820.516 864V840.074L839.793 835.973V744.234L818.465 740.133V716.07H879.715V835.973L898.855 840.074V864H820.516ZM838.426 684.762V650.719H879.715V684.762H838.426ZM983.074 866.871C968.947 866.871 956.596 863.772 946.023 857.574C935.451 851.285 927.247 842.672 921.414 831.734C915.672 820.797 912.801 808.31 912.801 794.273V788.805C912.801 774.13 915.535 761.142 921.004 749.84C926.473 738.447 934.174 729.514 944.109 723.043C954.135 716.572 965.939 713.336 979.52 713.336C992.918 713.336 1004.17 715.979 1013.29 721.266C1022.4 726.552 1029.33 734.163 1034.07 744.098C1038.81 754.033 1041.18 766.064 1041.18 780.191V801.93H954.227L953.953 802.75C954.5 809.221 956.095 815.009 958.738 820.113C961.473 825.126 965.301 829.091 970.223 832.008C975.145 834.833 981.115 836.246 988.133 836.246C995.424 836.246 1002.21 835.335 1008.5 833.512C1014.88 831.598 1021.08 828.818 1027.1 825.172L1037.9 849.781C1031.79 854.703 1024.09 858.805 1014.79 862.086C1005.59 865.276 995.014 866.871 983.074 866.871ZM954.5 775.543H1003.86V771.988C1003.86 765.973 1003.04 760.823 1001.39 756.539C999.845 752.164 997.293 748.792 993.738 746.422C990.275 744.052 985.763 742.867 980.203 742.867C974.917 742.867 970.451 744.28 966.805 747.105C963.159 749.84 960.288 753.622 958.191 758.453C956.186 763.284 954.819 768.753 954.09 774.859L954.5 775.543Z"/>
</mask>
<path d="M409.402 866.871C390.079 866.871 373.263 862.861 358.953 854.84C344.643 846.728 333.569 835.289 325.73 820.523C317.983 805.667 314.109 788.121 314.109 767.887V761.188C314.109 741.865 317.846 724.775 325.32 709.918C332.885 694.97 343.641 683.258 357.586 674.781C371.531 666.305 388.12 662.066 407.352 662.066C420.841 662.066 433.465 663.98 445.223 667.809C457.072 671.637 467.645 677.47 476.941 685.309V733.434H447.273L443.172 703.219C440.164 701.031 436.883 699.163 433.328 697.613C429.773 696.064 425.9 694.879 421.707 694.059C417.605 693.238 413.139 692.828 408.309 692.828C397.007 692.828 387.299 695.608 379.188 701.168C371.076 706.728 364.832 714.612 360.457 724.82C356.173 734.938 354.031 746.969 354.031 760.914V767.887C354.031 781.832 356.31 793.909 360.867 804.117C365.424 814.326 371.896 822.255 380.281 827.906C388.667 833.466 398.602 836.246 410.086 836.246C415.828 836.246 421.57 835.608 427.312 834.332C433.146 832.965 438.432 831.233 443.172 829.137L447.273 801.109H476.941V848.688C469.194 853.792 459.533 858.121 447.957 861.676C436.382 865.139 423.53 866.871 409.402 866.871ZM566.902 866.871C552.319 866.871 539.786 863.681 529.305 857.301C518.823 850.921 510.802 842.079 505.242 830.777C499.682 819.384 496.902 806.305 496.902 791.539V788.668C496.902 773.993 499.682 761.005 505.242 749.703C510.802 738.31 518.777 729.423 529.168 723.043C539.65 716.572 552.137 713.336 566.629 713.336C581.303 713.336 593.836 716.572 604.227 723.043C614.617 729.423 622.592 738.264 628.152 749.566C633.712 760.868 636.492 773.902 636.492 788.668V791.539C636.492 806.305 633.712 819.384 628.152 830.777C622.592 842.079 614.617 850.921 604.227 857.301C593.836 863.681 581.395 866.871 566.902 866.871ZM566.902 836.246C573.829 836.246 579.48 834.378 583.855 830.641C588.23 826.904 591.466 821.708 593.562 815.055C595.659 808.31 596.707 800.471 596.707 791.539V788.668C596.707 779.918 595.659 772.216 593.562 765.562C591.466 758.818 588.185 753.577 583.719 749.84C579.344 746.012 573.647 744.098 566.629 744.098C559.793 744.098 554.142 746.012 549.676 749.84C545.21 753.577 541.928 758.818 539.832 765.562C537.827 772.216 536.824 779.918 536.824 788.668V791.539C536.824 800.471 537.827 808.31 539.832 815.055C541.928 821.799 545.21 827.04 549.676 830.777C554.142 834.423 559.884 836.246 566.902 836.246ZM712.918 866.871C701.16 866.871 691.043 863.863 682.566 857.848C674.181 851.741 667.755 843.264 663.289 832.418C658.823 821.48 656.59 808.72 656.59 794.137V791.266C656.59 775.68 658.823 762.053 663.289 750.387C667.846 738.72 674.318 729.651 682.703 723.18C691.089 716.617 701.115 713.336 712.781 713.336C720.893 713.336 728.003 714.977 734.109 718.258C740.216 721.448 745.503 726.005 749.969 731.93V678.883L728.641 674.781V650.719H749.969H789.891V835.973L809.031 840.074V864H755.301L752.293 845.953C747.645 852.789 742.085 857.984 735.613 861.539C729.233 865.094 721.668 866.871 712.918 866.871ZM724.812 835.836C730.372 835.836 735.249 834.651 739.441 832.281C743.634 829.911 747.143 826.493 749.969 822.027V759.273C747.234 754.534 743.771 750.888 739.578 748.336C735.385 745.693 730.555 744.371 725.086 744.371C718.432 744.371 712.964 746.376 708.68 750.387C704.487 754.306 701.388 759.775 699.383 766.793C697.469 773.811 696.512 781.969 696.512 791.266V794.137C696.512 807.079 698.699 817.288 703.074 824.762C707.449 832.145 714.695 835.836 724.812 835.836ZM820.516 864V840.074L839.793 835.973V744.234L818.465 740.133V716.07H879.715V835.973L898.855 840.074V864H820.516ZM838.426 684.762V650.719H879.715V684.762H838.426ZM983.074 866.871C968.947 866.871 956.596 863.772 946.023 857.574C935.451 851.285 927.247 842.672 921.414 831.734C915.672 820.797 912.801 808.31 912.801 794.273V788.805C912.801 774.13 915.535 761.142 921.004 749.84C926.473 738.447 934.174 729.514 944.109 723.043C954.135 716.572 965.939 713.336 979.52 713.336C992.918 713.336 1004.17 715.979 1013.29 721.266C1022.4 726.552 1029.33 734.163 1034.07 744.098C1038.81 754.033 1041.18 766.064 1041.18 780.191V801.93H954.227L953.953 802.75C954.5 809.221 956.095 815.009 958.738 820.113C961.473 825.126 965.301 829.091 970.223 832.008C975.145 834.833 981.115 836.246 988.133 836.246C995.424 836.246 1002.21 835.335 1008.5 833.512C1014.88 831.598 1021.08 828.818 1027.1 825.172L1037.9 849.781C1031.79 854.703 1024.09 858.805 1014.79 862.086C1005.59 865.276 995.014 866.871 983.074 866.871ZM954.5 775.543H1003.86V771.988C1003.86 765.973 1003.04 760.823 1001.39 756.539C999.845 752.164 997.293 748.792 993.738 746.422C990.275 744.052 985.763 742.867 980.203 742.867C974.917 742.867 970.451 744.28 966.805 747.105C963.159 749.84 960.288 753.622 958.191 758.453C956.186 763.284 954.819 768.753 954.09 774.859L954.5 775.543Z" fill="white"/>
<path d="M358.953 854.84L356.487 859.19L356.498 859.196L356.508 859.201L358.953 854.84ZM325.73 820.523L321.297 822.835L321.306 822.852L321.314 822.868L325.73 820.523ZM325.32 709.918L320.859 707.66L320.854 707.671L325.32 709.918ZM445.223 667.809L443.675 672.563L443.686 672.566L445.223 667.809ZM476.941 685.309H481.941V682.984L480.164 681.486L476.941 685.309ZM476.941 733.434V738.434H481.941V733.434H476.941ZM447.273 733.434L442.319 734.106L442.906 738.434H447.273V733.434ZM443.172 703.219L448.126 702.546L447.839 700.431L446.113 699.175L443.172 703.219ZM421.707 694.059L420.726 698.961L420.737 698.964L420.747 698.966L421.707 694.059ZM379.188 701.168L376.361 697.044L379.188 701.168ZM360.457 724.82L355.861 722.851L355.857 722.861L355.853 722.871L360.457 724.82ZM380.281 827.906L377.487 832.053L377.503 832.063L377.518 832.073L380.281 827.906ZM427.312 834.332L428.397 839.213L428.425 839.207L428.453 839.2L427.312 834.332ZM443.172 829.137L445.194 833.709L447.719 832.593L448.119 829.861L443.172 829.137ZM447.273 801.109V796.109H442.952L442.326 800.385L447.273 801.109ZM476.941 801.109H481.941V796.109H476.941V801.109ZM476.941 848.688L479.692 852.863L481.941 851.381V848.688H476.941ZM447.957 861.676L449.39 866.466L449.408 866.461L449.425 866.455L447.957 861.676ZM409.402 866.871V861.871C390.783 861.871 374.838 858.012 361.398 850.478L358.953 854.84L356.508 859.201C371.688 867.71 389.376 871.871 409.402 871.871V866.871ZM358.953 854.84L361.419 850.49C347.951 842.855 337.547 832.119 330.147 818.179L325.73 820.523L321.314 822.868C329.591 838.459 341.336 850.6 356.487 859.19L358.953 854.84ZM325.73 820.523L330.164 818.212C322.858 804.202 319.109 787.482 319.109 767.887H314.109H309.109C309.109 788.76 313.108 807.131 321.297 822.835L325.73 820.523ZM314.109 767.887H319.109V761.188H314.109H309.109V767.887H314.109ZM314.109 761.188H319.109C319.109 742.519 322.716 726.22 329.787 712.165L325.32 709.918L320.854 707.671C312.976 723.33 309.109 741.211 309.109 761.188H314.109ZM325.32 709.918L329.782 712.176C336.937 698.037 347.057 687.032 360.183 679.054L357.586 674.781L354.989 670.509C340.224 679.483 328.834 691.903 320.859 707.66L325.32 709.918ZM357.586 674.781L360.183 679.054C373.215 671.132 388.87 667.066 407.352 667.066V662.066V657.066C387.369 657.066 369.847 661.477 354.989 670.509L357.586 674.781ZM407.352 662.066V667.066C420.363 667.066 432.46 668.912 443.675 672.563L445.223 667.809L446.771 663.054C434.47 659.049 421.319 657.066 407.352 657.066V662.066ZM445.223 667.809L443.686 672.566C454.932 676.2 464.93 681.721 473.718 689.131L476.941 685.309L480.164 681.486C470.36 673.219 459.211 667.073 446.76 663.051L445.223 667.809ZM476.941 685.309H471.941V733.434H476.941H481.941V685.309H476.941ZM476.941 733.434V728.434H447.273V733.434V738.434H476.941V733.434ZM447.273 733.434L452.228 732.761L448.126 702.546L443.172 703.219L438.217 703.891L442.319 734.106L447.273 733.434ZM443.172 703.219L446.113 699.175C442.799 696.765 439.2 694.718 435.326 693.03L433.328 697.613L431.33 702.197C434.566 703.607 437.529 705.297 440.231 707.262L443.172 703.219ZM433.328 697.613L435.326 693.03C431.406 691.321 427.181 690.035 422.667 689.152L421.707 694.059L420.747 698.966C424.619 699.723 428.14 700.806 431.33 702.197L433.328 697.613ZM421.707 694.059L422.688 689.156C418.218 688.262 413.419 687.828 408.309 687.828V692.828V697.828C412.859 697.828 416.993 698.215 420.726 698.961L421.707 694.059ZM408.309 692.828V687.828C396.153 687.828 385.425 690.831 376.361 697.044L379.188 701.168L382.014 705.292C389.174 700.385 397.86 697.828 408.309 697.828V692.828ZM379.188 701.168L376.361 697.044C367.369 703.207 360.56 711.887 355.861 722.851L360.457 724.82L365.053 726.79C369.104 717.337 374.782 710.249 382.014 705.292L379.188 701.168ZM360.457 724.82L355.853 722.871C351.248 733.747 349.031 746.472 349.031 760.914H354.031H359.031C359.031 747.465 361.099 736.128 365.061 726.77L360.457 724.82ZM354.031 760.914H349.031V767.887H354.031H359.031V760.914H354.031ZM354.031 767.887H349.031C349.031 782.366 351.396 795.168 356.301 806.155L360.867 804.117L365.433 802.079C361.223 792.65 359.031 781.298 359.031 767.887H354.031ZM360.867 804.117L356.301 806.155C361.199 817.125 368.245 825.824 377.487 832.053L380.281 827.906L383.076 823.76C375.547 818.686 369.65 811.526 365.433 802.079L360.867 804.117ZM380.281 827.906L377.518 832.073C386.834 838.251 397.762 841.246 410.086 841.246V836.246V831.246C399.441 831.246 390.499 828.682 383.044 823.739L380.281 827.906ZM410.086 836.246V841.246C416.202 841.246 422.308 840.566 428.397 839.213L427.312 834.332L426.228 829.451C420.833 830.65 415.454 831.246 410.086 831.246V836.246ZM427.312 834.332L428.453 839.2C434.544 837.773 440.131 835.949 445.194 833.709L443.172 829.137L441.149 824.564C436.734 826.517 431.748 828.157 426.172 829.464L427.312 834.332ZM443.172 829.137L448.119 829.861L452.221 801.833L447.273 801.109L442.326 800.385L438.225 828.413L443.172 829.137ZM447.273 801.109V806.109H476.941V801.109V796.109H447.273V801.109ZM476.941 801.109H471.941V848.688H476.941H481.941V801.109H476.941ZM476.941 848.688L474.191 844.512C466.94 849.289 457.741 853.441 446.489 856.896L447.957 861.676L449.425 866.455C461.324 862.801 471.448 858.294 479.692 852.863L476.941 848.688ZM447.957 861.676L446.524 856.886C435.484 860.189 423.124 861.871 409.402 861.871V866.871V871.871C423.935 871.871 437.279 870.09 449.39 866.466L447.957 861.676ZM505.242 830.777L500.749 832.97L500.752 832.977L500.756 832.984L505.242 830.777ZM505.242 749.703L509.729 751.91L509.732 751.903L509.736 751.896L505.242 749.703ZM529.168 723.043L531.784 727.304L531.795 727.297L529.168 723.043ZM604.227 723.043L601.583 727.287L601.597 727.296L601.61 727.304L604.227 723.043ZM628.152 749.566L623.666 751.773L628.152 749.566ZM628.152 830.777L632.639 832.984L632.642 832.977L632.646 832.97L628.152 830.777ZM583.855 830.641L580.608 826.839L583.855 830.641ZM593.562 815.055L598.331 816.557L598.334 816.548L598.337 816.539L593.562 815.055ZM593.562 765.562L588.788 767.047L588.791 767.056L588.794 767.065L593.562 765.562ZM583.719 749.84L580.426 753.603L580.468 753.639L580.51 753.675L583.719 749.84ZM549.676 749.84L552.884 753.675L552.907 753.655L552.93 753.636L549.676 749.84ZM539.832 765.562L535.057 764.078L535.051 764.099L535.045 764.12L539.832 765.562ZM539.832 815.055L535.039 816.48L535.048 816.509L535.057 816.539L539.832 815.055ZM549.676 830.777L546.467 834.612L546.49 834.631L546.514 834.651L549.676 830.777ZM566.902 866.871V861.871C553.062 861.871 541.466 858.85 531.904 853.03L529.305 857.301L526.705 861.572C538.107 868.512 551.576 871.871 566.902 871.871V866.871ZM529.305 857.301L531.904 853.03C522.257 847.158 514.881 839.043 509.729 828.57L505.242 830.777L500.756 832.984C506.724 845.116 515.388 854.683 526.705 861.572L529.305 857.301ZM505.242 830.777L509.736 828.585C504.56 817.978 501.902 805.67 501.902 791.539H496.902H491.902C491.902 806.94 494.805 820.79 500.749 832.97L505.242 830.777ZM496.902 791.539H501.902V788.668H496.902H491.902V791.539H496.902ZM496.902 788.668H501.902C501.902 774.633 504.558 762.421 509.729 751.91L505.242 749.703L500.756 747.496C494.806 759.59 491.902 773.354 491.902 788.668H496.902ZM505.242 749.703L509.736 751.896C514.896 741.321 522.236 733.167 531.784 727.304L529.168 723.043L526.552 718.782C515.318 725.68 506.708 735.299 500.749 747.51L505.242 749.703ZM529.168 723.043L531.795 727.297C541.357 721.394 552.899 718.336 566.629 718.336V713.336V708.336C551.375 708.336 537.943 711.749 526.541 718.788L529.168 723.043ZM566.629 713.336V718.336C580.556 718.336 592.131 721.4 601.583 727.287L604.227 723.043L606.87 718.799C595.541 711.743 582.051 708.336 566.629 708.336V713.336ZM604.227 723.043L601.61 727.304C611.168 733.173 618.508 741.289 623.666 751.773L628.152 749.566L632.639 747.359C626.677 735.239 618.066 725.673 606.843 718.782L604.227 723.043ZM628.152 749.566L623.666 751.773C628.834 762.28 631.492 774.536 631.492 788.668H636.492H641.492C641.492 773.268 638.59 759.457 632.639 747.359L628.152 749.566ZM636.492 788.668H631.492V791.539H636.492H641.492V788.668H636.492ZM636.492 791.539H631.492C631.492 805.67 628.835 817.978 623.659 828.585L628.152 830.777L632.646 832.97C638.59 820.79 641.492 806.94 641.492 791.539H636.492ZM628.152 830.777L623.666 828.57C618.508 839.054 611.168 847.171 601.61 853.04L604.227 857.301L606.843 861.562C618.066 854.67 626.677 845.105 632.639 832.984L628.152 830.777ZM604.227 857.301L601.61 853.04C592.144 858.852 580.647 861.871 566.902 861.871V866.871V871.871C582.142 871.871 595.528 868.51 606.843 861.562L604.227 857.301ZM566.902 836.246V841.246C574.766 841.246 581.647 839.103 587.103 834.442L583.855 830.641L580.608 826.839C577.314 829.652 572.892 831.246 566.902 831.246V836.246ZM583.855 830.641L587.103 834.442C592.329 829.979 596.014 823.914 598.331 816.557L593.562 815.055L588.794 813.552C586.919 819.503 584.132 823.829 580.608 826.839L583.855 830.641ZM593.562 815.055L598.337 816.539C600.616 809.206 601.707 800.848 601.707 791.539H596.707H591.707C591.707 800.095 590.701 807.414 588.788 813.571L593.562 815.055ZM596.707 791.539H601.707V788.668H596.707H591.707V791.539H596.707ZM596.707 788.668H601.707C601.707 779.532 600.614 771.305 598.331 764.06L593.562 765.562L588.794 767.065C590.704 773.127 591.707 780.304 591.707 788.668H596.707ZM593.562 765.562L598.337 764.078C596.017 756.613 592.274 750.479 586.927 746.005L583.719 749.84L580.51 753.675C584.096 756.675 586.915 761.023 588.788 767.047L593.562 765.562ZM583.719 749.84L587.011 746.077C581.545 741.294 574.595 739.098 566.629 739.098V744.098V749.098C572.699 749.098 577.143 750.73 580.426 753.603L583.719 749.84ZM566.629 744.098V739.098C558.804 739.098 551.938 741.315 546.422 746.044L549.676 749.84L552.93 753.636C556.346 750.708 560.782 749.098 566.629 749.098V744.098ZM549.676 749.84L546.467 746.005C541.12 750.479 537.378 756.613 535.057 764.078L539.832 765.562L544.607 767.047C546.479 761.023 549.299 756.675 552.884 753.675L549.676 749.84ZM539.832 765.562L535.045 764.12C532.867 771.344 531.824 779.55 531.824 788.668H536.824H541.824C541.824 780.286 542.786 773.088 544.619 767.005L539.832 765.562ZM536.824 788.668H531.824V791.539H536.824H541.824V788.668H536.824ZM536.824 791.539H531.824C531.824 800.831 532.865 809.167 535.039 816.48L539.832 815.055L544.625 813.63C542.788 807.452 541.824 800.112 541.824 791.539H536.824ZM539.832 815.055L535.057 816.539C537.378 824.004 541.12 830.138 546.467 834.612L549.676 830.777L552.884 826.943C549.299 823.943 546.479 819.595 544.607 813.571L539.832 815.055ZM549.676 830.777L546.514 834.651C552.055 839.174 558.991 841.246 566.902 841.246V836.246V831.246C560.777 831.246 556.229 829.673 552.838 826.904L549.676 830.777ZM682.566 857.848L679.623 861.889L679.648 861.907L679.673 861.925L682.566 857.848ZM663.289 832.418L658.66 834.308L658.663 834.315L658.666 834.322L663.289 832.418ZM663.289 750.387L658.632 748.567L658.626 748.583L658.62 748.599L663.289 750.387ZM682.703 723.18L685.758 727.138L685.771 727.128L685.785 727.117L682.703 723.18ZM734.109 718.258L731.743 722.662L731.768 722.676L731.794 722.69L734.109 718.258ZM749.969 731.93L745.976 734.939L754.969 746.868V731.93H749.969ZM749.969 678.883H754.969V674.753L750.913 673.973L749.969 678.883ZM728.641 674.781H723.641V678.911L727.696 679.691L728.641 674.781ZM728.641 650.719V645.719H723.641V650.719H728.641ZM789.891 650.719H794.891V645.719H789.891V650.719ZM789.891 835.973H784.891V840.015L788.843 840.862L789.891 835.973ZM809.031 840.074H814.031V836.032L810.079 835.185L809.031 840.074ZM809.031 864V869H814.031V864H809.031ZM755.301 864L750.369 864.822L751.065 869H755.301V864ZM752.293 845.953L757.225 845.131L755.174 832.825L748.158 843.142L752.293 845.953ZM735.613 861.539L733.206 857.157L733.193 857.164L733.18 857.171L735.613 861.539ZM739.441 832.281L741.902 836.634L739.441 832.281ZM749.969 822.027L754.194 824.701L754.969 823.476V822.027H749.969ZM749.969 759.273H754.969V757.935L754.3 756.775L749.969 759.273ZM739.578 748.336L736.912 752.566L736.945 752.587L736.978 752.607L739.578 748.336ZM708.68 750.387L712.094 754.039L712.097 754.037L708.68 750.387ZM699.383 766.793L694.575 765.419L694.567 765.448L694.559 765.477L699.383 766.793ZM703.074 824.762L698.759 827.288L698.766 827.299L698.773 827.311L703.074 824.762ZM712.918 866.871V861.871C702.056 861.871 692.983 859.109 685.46 853.77L682.566 857.848L679.673 861.925C689.103 868.618 700.265 871.871 712.918 871.871V866.871ZM682.566 857.848L685.51 853.806C677.965 848.311 672.074 840.621 667.912 830.514L663.289 832.418L658.666 834.322C663.436 845.908 670.397 855.17 679.623 861.889L682.566 857.848ZM663.289 832.418L667.918 830.528C663.747 820.313 661.59 808.219 661.59 794.137H656.59H651.59C651.59 809.221 653.899 822.648 658.66 834.308L663.289 832.418ZM656.59 794.137H661.59V791.266H656.59H651.59V794.137H656.59ZM656.59 791.266H661.59C661.59 776.145 663.758 763.148 667.959 752.174L663.289 750.387L658.62 748.599C653.888 760.958 651.59 775.214 651.59 791.266H656.59ZM663.289 750.387L667.946 752.206C672.234 741.229 678.213 732.961 685.758 727.138L682.703 723.18L679.648 719.221C670.423 726.341 663.458 736.211 658.632 748.567L663.289 750.387ZM682.703 723.18L685.785 727.117C693.205 721.31 702.118 718.336 712.781 718.336V713.336V708.336C700.111 708.336 688.972 711.924 679.622 719.242L682.703 723.18ZM712.781 713.336V718.336C720.208 718.336 726.478 719.834 731.743 722.662L734.109 718.258L736.476 713.853C729.527 710.119 721.578 708.336 712.781 708.336V713.336ZM734.109 718.258L731.794 722.69C737.194 725.51 741.922 729.561 745.976 734.939L749.969 731.93L753.961 728.92C749.083 722.449 743.239 717.386 736.424 713.826L734.109 718.258ZM749.969 731.93H754.969V678.883H749.969H744.969V731.93H749.969ZM749.969 678.883L750.913 673.973L729.585 669.871L728.641 674.781L727.696 679.691L749.025 683.793L749.969 678.883ZM728.641 674.781H733.641V650.719H728.641H723.641V674.781H728.641ZM728.641 650.719V655.719H749.969V650.719V645.719H728.641V650.719ZM749.969 650.719V655.719H789.891V650.719V645.719H749.969V650.719ZM789.891 650.719H784.891V835.973H789.891H794.891V650.719H789.891ZM789.891 835.973L788.843 840.862L807.984 844.963L809.031 840.074L810.079 835.185L790.938 831.084L789.891 835.973ZM809.031 840.074H804.031V864H809.031H814.031V840.074H809.031ZM809.031 864V859H755.301V864V869H809.031V864ZM755.301 864L760.233 863.178L757.225 845.131L752.293 845.953L747.361 846.775L750.369 864.822L755.301 864ZM752.293 845.953L748.158 843.142C743.9 849.404 738.907 854.025 733.206 857.157L735.613 861.539L738.021 865.921C745.263 861.943 751.389 856.174 756.428 848.765L752.293 845.953ZM735.613 861.539L733.18 857.171C727.678 860.236 720.985 861.871 712.918 861.871V866.871V871.871C722.351 871.871 730.788 869.951 738.047 865.907L735.613 861.539ZM724.812 835.836V840.836C731.1 840.836 736.849 839.49 741.902 836.634L739.441 832.281L736.981 827.928C733.648 829.812 729.645 830.836 724.812 830.836V835.836ZM739.441 832.281L741.902 836.634C746.88 833.82 750.972 829.794 754.194 824.701L749.969 822.027L745.743 819.354C743.315 823.193 740.388 826.003 736.981 827.928L739.441 832.281ZM749.969 822.027H754.969V759.273H749.969H744.969V822.027H749.969ZM749.969 759.273L754.3 756.775C751.195 751.394 747.167 747.102 742.178 744.065L739.578 748.336L736.978 752.607C740.375 754.674 743.274 757.674 745.638 761.772L749.969 759.273ZM739.578 748.336L742.245 744.106C737.172 740.909 731.397 739.371 725.086 739.371V744.371V749.371C729.712 749.371 733.599 750.477 736.912 752.566L739.578 748.336ZM725.086 744.371V739.371C717.346 739.371 710.598 741.741 705.263 746.737L708.68 750.387L712.097 754.037C715.329 751.011 719.518 749.371 725.086 749.371V744.371ZM708.68 750.387L705.265 746.734C700.253 751.42 696.763 757.763 694.575 765.419L699.383 766.793L704.19 768.167C706.013 761.787 708.721 757.192 712.094 754.039L708.68 750.387ZM699.383 766.793L694.559 765.477C692.501 773.024 691.512 781.641 691.512 791.266H696.512H701.512C701.512 782.297 702.437 774.598 704.207 768.109L699.383 766.793ZM696.512 791.266H691.512V794.137H696.512H701.512V791.266H696.512ZM696.512 794.137H691.512C691.512 807.56 693.767 818.759 698.759 827.288L703.074 824.762L707.389 822.236C703.632 815.816 701.512 806.599 701.512 794.137H696.512ZM703.074 824.762L698.773 827.311C704.223 836.509 713.303 840.836 724.812 840.836V835.836V830.836C716.088 830.836 710.675 827.78 707.376 822.213L703.074 824.762ZM820.516 864H815.516V869H820.516V864ZM820.516 840.074L819.475 835.184L815.516 836.026V840.074H820.516ZM839.793 835.973L840.833 840.863L844.793 840.021V835.973H839.793ZM839.793 744.234H844.793V740.104L840.737 739.324L839.793 744.234ZM818.465 740.133H813.465V744.263L817.521 745.043L818.465 740.133ZM818.465 716.07V711.07H813.465V716.07H818.465ZM879.715 716.07H884.715V711.07H879.715V716.07ZM879.715 835.973H874.715V840.015L878.667 840.862L879.715 835.973ZM898.855 840.074H903.855V836.032L899.903 835.185L898.855 840.074ZM898.855 864V869H903.855V864H898.855ZM838.426 684.762H833.426V689.762H838.426V684.762ZM838.426 650.719V645.719H833.426V650.719H838.426ZM879.715 650.719H884.715V645.719H879.715V650.719ZM879.715 684.762V689.762H884.715V684.762H879.715ZM820.516 864H825.516V840.074H820.516H815.516V864H820.516ZM820.516 840.074L821.556 844.965L840.833 840.863L839.793 835.973L838.752 831.082L819.475 835.184L820.516 840.074ZM839.793 835.973H844.793V744.234H839.793H834.793V835.973H839.793ZM839.793 744.234L840.737 739.324L819.409 735.223L818.465 740.133L817.521 745.043L838.849 749.144L839.793 744.234ZM818.465 740.133H823.465V716.07H818.465H813.465V740.133H818.465ZM818.465 716.07V721.07H879.715V716.07V711.07H818.465V716.07ZM879.715 716.07H874.715V835.973H879.715H884.715V716.07H879.715ZM879.715 835.973L878.667 840.862L897.808 844.963L898.855 840.074L899.903 835.185L880.763 831.084L879.715 835.973ZM898.855 840.074H893.855V864H898.855H903.855V840.074H898.855ZM898.855 864V859H820.516V864V869H898.855V864ZM838.426 684.762H843.426V650.719H838.426H833.426V684.762H838.426ZM838.426 650.719V655.719H879.715V650.719V645.719H838.426V650.719ZM879.715 650.719H874.715V684.762H879.715H884.715V650.719H879.715ZM879.715 684.762V679.762H838.426V684.762V689.762H879.715V684.762ZM946.023 857.574L943.467 861.871L943.481 861.88L943.495 861.888L946.023 857.574ZM921.414 831.734L916.987 834.059L916.995 834.073L917.002 834.087L921.414 831.734ZM921.004 749.84L925.505 752.018L925.508 752.011L925.512 752.003L921.004 749.84ZM944.109 723.043L941.398 718.842L941.389 718.848L941.38 718.853L944.109 723.043ZM1013.29 721.266L1010.78 725.591L1013.29 721.266ZM1034.07 744.098L1038.58 741.945L1034.07 744.098ZM1041.18 801.93V806.93H1046.18V801.93H1041.18ZM954.227 801.93V796.93H950.623L949.483 800.349L954.227 801.93ZM953.953 802.75L949.21 801.169L948.884 802.145L948.971 803.171L953.953 802.75ZM958.738 820.113L954.298 822.413L954.323 822.46L954.349 822.508L958.738 820.113ZM970.223 832.008L967.674 836.309L967.703 836.327L967.733 836.344L970.223 832.008ZM1008.5 833.512L1009.9 838.314L1009.92 838.308L1009.94 838.301L1008.5 833.512ZM1027.1 825.172L1031.68 823.162L1029.38 817.94L1024.51 820.896L1027.1 825.172ZM1037.9 849.781L1041.04 853.674L1044.01 851.274L1042.48 847.772L1037.9 849.781ZM1014.79 862.086L1016.43 866.81L1016.44 866.806L1016.46 866.801L1014.79 862.086ZM954.5 775.543L950.213 778.115L951.669 780.543H954.5V775.543ZM1003.86 775.543V780.543H1008.86V775.543H1003.86ZM1001.39 756.539L996.681 758.208L996.703 758.268L996.725 758.327L1001.39 756.539ZM993.738 746.422L990.915 750.548L990.94 750.565L990.965 750.582L993.738 746.422ZM966.805 747.105L969.805 751.105L969.836 751.082L969.868 751.058L966.805 747.105ZM958.191 758.453L953.605 756.463L953.589 756.499L953.573 756.536L958.191 758.453ZM954.09 774.859L949.125 774.267L948.922 775.965L949.802 777.432L954.09 774.859ZM983.074 866.871V861.871C969.698 861.871 958.247 858.944 948.552 853.261L946.023 857.574L943.495 861.888C954.945 868.6 968.195 871.871 983.074 871.871V866.871ZM946.023 857.574L948.58 853.277C938.797 847.458 931.233 839.52 925.826 829.381L921.414 831.734L917.002 834.087C923.262 845.824 932.104 855.112 943.467 861.871L946.023 857.574ZM921.414 831.734L925.841 829.41C920.524 819.282 917.801 807.612 917.801 794.273H912.801H907.801C907.801 809.008 910.82 822.312 916.987 834.059L921.414 831.734ZM912.801 794.273H917.801V788.805H912.801H907.801V794.273H912.801ZM912.801 788.805H917.801C917.801 774.758 920.416 762.535 925.505 752.018L921.004 749.84L916.503 747.662C910.655 759.749 907.801 773.503 907.801 788.805H912.801ZM921.004 749.84L925.512 752.003C930.611 741.379 937.722 733.171 946.838 727.233L944.109 723.043L941.38 718.853C930.627 725.858 922.334 735.514 916.496 747.676L921.004 749.84ZM944.109 723.043L946.821 727.244C955.931 721.364 966.764 718.336 979.52 718.336V713.336V708.336C965.113 708.336 952.34 711.78 941.398 718.842L944.109 723.043ZM979.52 713.336V718.336C992.272 718.336 1002.61 720.851 1010.78 725.591L1013.29 721.266L1015.8 716.94C1005.74 711.107 993.564 708.336 979.52 708.336V713.336ZM1013.29 721.266L1010.78 725.591C1018.98 730.348 1025.23 737.182 1029.56 746.251L1034.07 744.098L1038.58 741.945C1033.43 731.143 1025.82 722.756 1015.8 716.94L1013.29 721.266ZM1034.07 744.098L1029.56 746.251C1033.9 755.351 1036.18 766.605 1036.18 780.191H1041.18H1046.18C1046.18 765.523 1043.72 752.715 1038.58 741.945L1034.07 744.098ZM1041.18 780.191H1036.18V801.93H1041.18H1046.18V780.191H1041.18ZM1041.18 801.93V796.93H954.227V801.93V806.93H1041.18V801.93ZM954.227 801.93L949.483 800.349L949.21 801.169L953.953 802.75L958.697 804.331L958.97 803.511L954.227 801.93ZM953.953 802.75L948.971 803.171C949.566 810.213 951.316 816.653 954.298 822.413L958.738 820.113L963.178 817.814C960.874 813.365 959.434 808.229 958.935 802.329L953.953 802.75ZM958.738 820.113L954.349 822.508C957.515 828.312 961.979 832.935 967.674 836.309L970.223 832.008L972.772 827.706C968.622 825.247 965.43 821.941 963.128 817.719L958.738 820.113ZM970.223 832.008L967.733 836.344C973.573 839.696 980.446 841.246 988.133 841.246V836.246V831.246C981.783 831.246 976.716 829.97 972.712 827.672L970.223 832.008ZM988.133 836.246V841.246C995.843 841.246 1003.11 840.282 1009.9 838.314L1008.5 833.512L1007.11 828.709C1001.32 830.387 995.006 831.246 988.133 831.246V836.246ZM1008.5 833.512L1009.94 838.301C1016.75 836.259 1023.33 833.301 1029.69 829.448L1027.1 825.172L1024.51 820.896C1018.83 824.335 1013.02 826.937 1007.07 828.723L1008.5 833.512ZM1027.1 825.172L1022.52 827.181L1033.32 851.791L1037.9 849.781L1042.48 847.772L1031.68 823.162L1027.1 825.172ZM1037.9 849.781L1034.76 845.888C1029.19 850.377 1022.02 854.232 1013.13 857.371L1014.79 862.086L1016.46 866.801C1026.16 863.377 1034.39 859.03 1041.04 853.674L1037.9 849.781ZM1014.79 862.086L1013.16 857.362C1004.58 860.333 994.578 861.871 983.074 861.871V866.871V871.871C995.45 871.871 1006.59 870.219 1016.43 866.81L1014.79 862.086ZM954.5 775.543V780.543H1003.86V775.543V770.543H954.5V775.543ZM1003.86 775.543H1008.86V771.988H1003.86H998.855V775.543H1003.86ZM1003.86 771.988H1008.86C1008.86 765.542 1007.98 759.753 1006.06 754.751L1001.39 756.539L996.725 758.327C998.091 761.893 998.855 766.404 998.855 771.988H1003.86ZM1001.39 756.539L1006.11 754.87C1004.23 749.57 1001.04 745.283 996.512 742.262L993.738 746.422L990.965 750.582C993.542 752.3 995.459 754.758 996.681 758.208L1001.39 756.539ZM993.738 746.422L996.562 742.295C992.035 739.198 986.448 737.867 980.203 737.867V742.867V747.867C985.078 747.867 988.514 748.906 990.915 750.548L993.738 746.422ZM980.203 742.867V737.867C973.977 737.867 968.389 739.551 963.742 743.153L966.805 747.105L969.868 751.058C972.512 749.008 975.856 747.867 980.203 747.867V742.867ZM966.805 747.105L963.805 743.105C959.363 746.437 955.992 750.961 953.605 756.463L958.191 758.453L962.778 760.444C964.583 756.284 966.955 753.243 969.805 751.105L966.805 747.105ZM958.191 758.453L953.573 756.536C951.365 761.857 949.899 767.782 949.125 774.267L954.09 774.859L959.055 775.452C959.739 769.723 961.008 764.711 962.809 760.37L958.191 758.453ZM954.09 774.859L949.802 777.432L950.213 778.115L954.5 775.543L958.787 772.97L958.377 772.287L954.09 774.859Z" fill="#0F899B" mask="url(#path-4-outside-1_3_37)"/>
</g>
<g filter="url(#filter2_d_3_37)">
<mask id="path-6-outside-2_3_37" maskUnits="userSpaceOnUse" x="77" y="642" width="196" height="222" fill="black">
<rect fill="white" x="77" y="642" width="196" height="222"/>
<path d="M267.441 856.176L82.4609 777.328V728.559L267.441 649.926V708.363L155.293 750.043L143.691 752.836V754.125L155.293 756.918L267.441 797.738V856.176Z"/>
</mask>
<path d="M267.441 856.176L82.4609 777.328V728.559L267.441 649.926V708.363L155.293 750.043L143.691 752.836V754.125L155.293 756.918L267.441 797.738V856.176Z" fill="white"/>
<path d="M267.441 856.176L265.481 860.775L272.441 863.742V856.176H267.441ZM82.4609 777.328H77.4609V780.632L80.5004 781.928L82.4609 777.328ZM82.4609 728.559L80.5049 723.957L77.4609 725.251V728.559H82.4609ZM267.441 649.926H272.441V642.367L265.485 645.324L267.441 649.926ZM267.441 708.363L269.183 713.05L272.441 711.839V708.363H267.441ZM155.293 750.043L156.463 754.904L156.754 754.834L157.035 754.73L155.293 750.043ZM143.691 752.836L142.521 747.975L138.691 748.897V752.836H143.691ZM143.691 754.125H138.691V758.064L142.521 758.986L143.691 754.125ZM155.293 756.918L157.003 752.22L156.738 752.123L156.463 752.057L155.293 756.918ZM267.441 797.738H272.441V794.237L269.152 793.04L267.441 797.738ZM267.441 856.176L269.402 851.576L84.4215 772.729L82.4609 777.328L80.5004 781.928L265.481 860.775L267.441 856.176ZM82.4609 777.328H87.4609V728.559H82.4609H77.4609V777.328H82.4609ZM82.4609 728.559L84.417 733.16L269.397 654.527L267.441 649.926L265.485 645.324L80.5049 723.957L82.4609 728.559ZM267.441 649.926H262.441V708.363H267.441H272.441V649.926H267.441ZM267.441 708.363L265.7 703.676L153.551 745.356L155.293 750.043L157.035 754.73L269.183 713.05L267.441 708.363ZM155.293 750.043L154.123 745.182L142.521 747.975L143.691 752.836L144.862 757.697L156.463 754.904L155.293 750.043ZM143.691 752.836H138.691V754.125H143.691H148.691V752.836H143.691ZM143.691 754.125L142.521 758.986L154.123 761.779L155.293 756.918L156.463 752.057L144.862 749.264L143.691 754.125ZM155.293 756.918L153.583 761.616L265.731 802.437L267.441 797.738L269.152 793.04L157.003 752.22L155.293 756.918ZM267.441 797.738H262.441V856.176H267.441H272.441V797.738H267.441Z" fill="#0F899B" mask="url(#path-6-outside-2_3_37)"/>
</g>
<g filter="url(#filter3_d_3_37)">
<mask id="path-8-outside-3_3_37" maskUnits="userSpaceOnUse" x="1225" y="644" width="198" height="222" fill="black">
<rect fill="white" x="1225" y="644" width="198" height="222"/>
<path d="M1230.34 858.109V800.102L1342.92 757.992L1356.03 755.199V753.91L1342.92 750.258L1230.34 709.652V651.859L1417.47 730.492V779.262L1230.34 858.109Z"/>
</mask>
<path d="M1230.34 858.109V800.102L1342.92 757.992L1356.03 755.199V753.91L1342.92 750.258L1230.34 709.652V651.859L1417.47 730.492V779.262L1230.34 858.109Z" fill="white"/>
<path d="M1230.34 858.109H1225.34V865.642L1232.29 862.717L1230.34 858.109ZM1230.34 800.102L1228.59 795.418L1225.34 796.633V800.102H1230.34ZM1342.92 757.992L1341.88 753.102L1341.52 753.179L1341.17 753.309L1342.92 757.992ZM1356.03 755.199L1357.07 760.089L1361.03 759.246V755.199H1356.03ZM1356.03 753.91H1361.03V750.113L1357.37 749.094L1356.03 753.91ZM1342.92 750.258L1341.23 754.961L1341.4 755.024L1341.58 755.074L1342.92 750.258ZM1230.34 709.652H1225.34V713.164L1228.65 714.356L1230.34 709.652ZM1230.34 651.859L1232.28 647.25L1225.34 644.335V651.859H1230.34ZM1417.47 730.492H1422.47V727.17L1419.41 725.883L1417.47 730.492ZM1417.47 779.262L1419.41 783.869L1422.47 782.581V779.262H1417.47ZM1230.34 858.109H1235.34V800.102H1230.34H1225.34V858.109H1230.34ZM1230.34 800.102L1232.1 804.785L1344.67 762.675L1342.92 757.992L1341.17 753.309L1228.59 795.418L1230.34 800.102ZM1342.92 757.992L1343.96 762.882L1357.07 760.089L1356.03 755.199L1354.99 750.309L1341.88 753.102L1342.92 757.992ZM1356.03 755.199H1361.03V753.91H1356.03H1351.03V755.199H1356.03ZM1356.03 753.91L1357.37 749.094L1344.26 745.441L1342.92 750.258L1341.58 755.074L1354.69 758.727L1356.03 753.91ZM1342.92 750.258L1344.62 745.554L1232.04 704.949L1230.34 709.652L1228.65 714.356L1341.23 754.961L1342.92 750.258ZM1230.34 709.652H1235.34V651.859H1230.34H1225.34V709.652H1230.34ZM1230.34 651.859L1228.41 656.469L1415.54 735.102L1417.47 730.492L1419.41 725.883L1232.28 647.25L1230.34 651.859ZM1417.47 730.492H1412.47V779.262H1417.47H1422.47V730.492H1417.47ZM1417.47 779.262L1415.53 774.654L1228.4 853.502L1230.34 858.109L1232.29 862.717L1419.41 783.869L1417.47 779.262Z" fill="#0F899B" mask="url(#path-8-outside-3_3_37)"/>
</g>
<g filter="url(#filter4_d_3_37)">
<mask id="path-10-outside-4_3_37" maskUnits="userSpaceOnUse" x="1065" y="631" width="143" height="243" fill="black">
<rect fill="white" x="1065" y="631" width="143" height="243"/>
<path d="M1072.63 868.311L1160.67 636.719H1200.07L1112.04 868.311H1072.63Z"/>
</mask>
<path d="M1072.63 868.311L1160.67 636.719H1200.07L1112.04 868.311H1072.63Z" fill="white"/>
<path d="M1072.63 868.311L1067.96 866.534L1065.38 873.311H1072.63V868.311ZM1160.67 636.719V631.719H1157.22L1155.99 634.942L1160.67 636.719ZM1200.07 636.719L1204.75 638.495L1207.32 631.719H1200.07V636.719ZM1112.04 868.311V873.311H1115.48L1116.71 870.087L1112.04 868.311ZM1072.63 868.311L1077.3 870.087L1165.34 638.495L1160.67 636.719L1155.99 634.942L1067.96 866.534L1072.63 868.311ZM1160.67 636.719V641.719H1200.07V636.719V631.719H1160.67V636.719ZM1200.07 636.719L1195.4 634.942L1107.36 866.534L1112.04 868.311L1116.71 870.087L1204.75 638.495L1200.07 636.719ZM1112.04 868.311V863.311H1072.63V868.311V873.311H1112.04V868.311Z" fill="#0F899B" mask="url(#path-10-outside-4_3_37)"/>
</g>
</g>
<defs>
<filter id="filter0_d_3_37" x="45" y="520" width="1410" height="469" filterUnits="userSpaceOnUse" color-interpolation-filters="sRGB">
<feFlood flood-opacity="0" result="BackgroundImageFix"/>
<feColorMatrix in="SourceAlpha" type="matrix" values="0 0 0 0 0 0 0 0 0 0 0 0 0 0 0 0 0 0 127 0" result="hardAlpha"/>
<feOffset dy="4"/>
<feGaussianBlur stdDeviation="10"/>
<feComposite in2="hardAlpha" operator="out"/>
<feColorMatrix type="matrix" values="0 0 0 0 0 0 0 0 0 0 0 0 0 0 0 0 0 0 0.25 0"/>
<feBlend mode="normal" in2="BackgroundImageFix" result="effect1_dropShadow_3_37"/>
<feBlend mode="normal" in="SourceGraphic" in2="effect1_dropShadow_3_37" result="shape"/>
</filter>
<filter id="filter1_d_3_37" x="189.109" y="529.719" width="977.07" height="466.152" filterUnits="userSpaceOnUse" color-interpolation-filters="sRGB">
<feFlood flood-opacity="0" result="BackgroundImageFix"/>
<feColorMatrix in="SourceAlpha" type="matrix" values="0 0 0 0 0 0 0 0 0 0 0 0 0 0 0 0 0 0 127 0" result="hardAlpha"/>
<feOffset dy="4"/>
<feGaussianBlur stdDeviation="60"/>
<feComposite in2="hardAlpha" operator="out"/>
<feColorMatrix type="matrix" values="0 0 0 0 0 0 0 0 0 0 0 0 0 0 0 0 0 0 0.25 0"/>
<feBlend mode="normal" in2="BackgroundImageFix" result="effect1_dropShadow_3_37"/>
<feBlend mode="normal" in="SourceGraphic" in2="effect1_dropShadow_3_37" result="shape"/>
</filter>
<filter id="filter2_d_3_37" x="-42.5391" y="526.367" width="434.98" height="461.375" filterUnits="userSpaceOnUse" color-interpolation-filters="sRGB">
<feFlood flood-opacity="0" result="BackgroundImageFix"/>
<feColorMatrix in="SourceAlpha" type="matrix" values="0 0 0 0 0 0 0 0 0 0 0 0 0 0 0 0 0 0 127 0" result="hardAlpha"/>
<feOffset dy="4"/>
<feGaussianBlur stdDeviation="60"/>
<feComposite in2="hardAlpha" operator="out"/>
<feColorMatrix type="matrix" values="0 0 0 0 0 0 0 0 0 0 0 0 0 0 0 0 0 0 0.25 0"/>
<feBlend mode="normal" in2="BackgroundImageFix" result="effect1_dropShadow_3_37"/>
<feBlend mode="normal" in="SourceGraphic" in2="effect1_dropShadow_3_37" result="shape"/>
</filter>
<filter id="filter3_d_3_37" x="1105.34" y="528.335" width="437.129" height="461.307" filterUnits="userSpaceOnUse" color-interpolation-filters="sRGB">
<feFlood flood-opacity="0" result="BackgroundImageFix"/>
<feColorMatrix in="SourceAlpha" type="matrix" values="0 0 0 0 0 0 0 0 0 0 0 0 0 0 0 0 0 0 127 0" result="hardAlpha"/>
<feOffset dy="4"/>
<feGaussianBlur stdDeviation="60"/>
<feComposite in2="hardAlpha" operator="out"/>
<feColorMatrix type="matrix" values="0 0 0 0 0 0 0 0 0 0 0 0 0 0 0 0 0 0 0.25 0"/>
<feBlend mode="normal" in2="BackgroundImageFix" result="effect1_dropShadow_3_37"/>
<feBlend mode="normal" in="SourceGraphic" in2="effect1_dropShadow_3_37" result="shape"/>
</filter>
<filter id="filter4_d_3_37" x="945.381" y="515.719" width="381.941" height="481.592" filterUnits="userSpaceOnUse" color-interpolation-filters="sRGB">
<feFlood flood-opacity="0" result="BackgroundImageFix"/>
<feColorMatrix in="SourceAlpha" type="matrix" values="0 0 0 0 0 0 0 0 0 0 0 0 0 0 0 0 0 0 127 0" result="hardAlpha"/>
<feOffset dy="4"/>
<feGaussianBlur stdDeviation="60"/>
<feComposite in2="hardAlpha" operator="out"/>
<feColorMatrix type="matrix" values="0 0 0 0 0 0 0 0 0 0 0 0 0 0 0 0 0 0 0.25 0"/>
<feBlend mode="normal" in2="BackgroundImageFix" result="effect1_dropShadow_3_37"/>
<feBlend mode="normal" in="SourceGraphic" in2="effect1_dropShadow_3_37" result="shape"/>
</filter>
<clipPath id="clip0_3_37">
<rect width="1500" height="1500" fill="white"/>
</clipPath>
</defs>
</svg>
