<svg width="1500" height="1500" viewBox="0 0 1500 1500" fill="none" xmlns="http://www.w3.org/2000/svg">
<g clip-path="url(#clip0_8_2)">
<path d="M750 230C887.913 230 1020.18 284.786 1117.7 382.305C1215.21 479.824 1270 612.087 1270 750C1270 887.913 1215.21 1020.18 1117.7 1117.7C1020.18 1215.21 887.913 1270 750 1270C612.087 1270 479.824 1215.21 382.305 1117.7C284.786 1020.18 230 887.913 230 750C230 612.087 284.786 479.824 382.305 382.305C479.824 284.786 612.087 230 750 230Z" stroke="black" stroke-width="40"/>
<g filter="url(#filter0_d_8_2)">
<rect x="55" y="526" width="1390" height="449" rx="185" stroke="black" stroke-width="30" shape-rendering="crispEdges"/>
</g>
<g filter="url(#filter1_d_8_2)">
<path d="M409.402 866.871C390.079 866.871 373.263 862.861 358.953 854.84C344.643 846.728 333.569 835.289 325.73 820.523C317.983 805.667 314.109 788.121 314.109 767.887V761.188C314.109 741.865 317.846 724.775 325.32 709.918C332.885 694.97 343.641 683.258 357.586 674.781C371.531 666.305 388.12 662.066 407.352 662.066C420.841 662.066 433.465 663.98 445.223 667.809C457.072 671.637 467.645 677.47 476.941 685.309V733.434H447.273L443.172 703.219C440.164 701.031 436.883 699.163 433.328 697.613C429.773 696.064 425.9 694.879 421.707 694.059C417.605 693.238 413.139 692.828 408.309 692.828C397.007 692.828 387.299 695.608 379.188 701.168C371.076 706.728 364.832 714.612 360.457 724.82C356.173 734.938 354.031 746.969 354.031 760.914V767.887C354.031 781.832 356.31 793.909 360.867 804.117C365.424 814.326 371.896 822.255 380.281 827.906C388.667 833.466 398.602 836.246 410.086 836.246C415.828 836.246 421.57 835.608 427.312 834.332C433.146 832.965 438.432 831.233 443.172 829.137L447.273 801.109H476.941V848.688C469.194 853.792 459.533 858.121 447.957 861.676C436.382 865.139 423.53 866.871 409.402 866.871ZM566.902 866.871C552.319 866.871 539.786 863.681 529.305 857.301C518.823 850.921 510.802 842.079 505.242 830.777C499.682 819.384 496.902 806.305 496.902 791.539V788.668C496.902 773.993 499.682 761.005 505.242 749.703C510.802 738.31 518.777 729.423 529.168 723.043C539.65 716.572 552.137 713.336 566.629 713.336C581.303 713.336 593.836 716.572 604.227 723.043C614.617 729.423 622.592 738.264 628.152 749.566C633.712 760.868 636.492 773.902 636.492 788.668V791.539C636.492 806.305 633.712 819.384 628.152 830.777C622.592 842.079 614.617 850.921 604.227 857.301C593.836 863.681 581.395 866.871 566.902 866.871ZM566.902 836.246C573.829 836.246 579.48 834.378 583.855 830.641C588.23 826.904 591.466 821.708 593.562 815.055C595.659 808.31 596.707 800.471 596.707 791.539V788.668C596.707 779.918 595.659 772.216 593.562 765.562C591.466 758.818 588.185 753.577 583.719 749.84C579.344 746.012 573.647 744.098 566.629 744.098C559.793 744.098 554.142 746.012 549.676 749.84C545.21 753.577 541.928 758.818 539.832 765.562C537.827 772.216 536.824 779.918 536.824 788.668V791.539C536.824 800.471 537.827 808.31 539.832 815.055C541.928 821.799 545.21 827.04 549.676 830.777C554.142 834.423 559.884 836.246 566.902 836.246ZM712.918 866.871C701.16 866.871 691.043 863.863 682.566 857.848C674.181 851.741 667.755 843.264 663.289 832.418C658.823 821.48 656.59 808.72 656.59 794.137V791.266C656.59 775.68 658.823 762.053 663.289 750.387C667.846 738.72 674.318 729.651 682.703 723.18C691.089 716.617 701.115 713.336 712.781 713.336C720.893 713.336 728.003 714.977 734.109 718.258C740.216 721.448 745.503 726.005 749.969 731.93V678.883L728.641 674.781V650.719H749.969H789.891V835.973L809.031 840.074V864H755.301L752.293 845.953C747.645 852.789 742.085 857.984 735.613 861.539C729.233 865.094 721.668 866.871 712.918 866.871ZM724.812 835.836C730.372 835.836 735.249 834.651 739.441 832.281C743.634 829.911 747.143 826.493 749.969 822.027V759.273C747.234 754.534 743.771 750.888 739.578 748.336C735.385 745.693 730.555 744.371 725.086 744.371C718.432 744.371 712.964 746.376 708.68 750.387C704.487 754.306 701.388 759.775 699.383 766.793C697.469 773.811 696.512 781.969 696.512 791.266V794.137C696.512 807.079 698.699 817.288 703.074 824.762C707.449 832.145 714.695 835.836 724.812 835.836ZM820.516 864V840.074L839.793 835.973V744.234L818.465 740.133V716.07H879.715V835.973L898.855 840.074V864H820.516ZM838.426 684.762V650.719H879.715V684.762H838.426ZM983.074 866.871C968.947 866.871 956.596 863.772 946.023 857.574C935.451 851.285 927.247 842.672 921.414 831.734C915.672 820.797 912.801 808.31 912.801 794.273V788.805C912.801 774.13 915.535 761.142 921.004 749.84C926.473 738.447 934.174 729.514 944.109 723.043C954.135 716.572 965.939 713.336 979.52 713.336C992.918 713.336 1004.17 715.979 1013.29 721.266C1022.4 726.552 1029.33 734.163 1034.07 744.098C1038.81 754.033 1041.18 766.064 1041.18 780.191V801.93H954.227L953.953 802.75C954.5 809.221 956.095 815.009 958.738 820.113C961.473 825.126 965.301 829.091 970.223 832.008C975.145 834.833 981.115 836.246 988.133 836.246C995.424 836.246 1002.21 835.335 1008.5 833.512C1014.88 831.598 1021.08 828.818 1027.1 825.172L1037.9 849.781C1031.79 854.703 1024.09 858.805 1014.79 862.086C1005.59 865.276 995.014 866.871 983.074 866.871ZM954.5 775.543H1003.86V771.988C1003.86 765.973 1003.04 760.823 1001.39 756.539C999.845 752.164 997.293 748.792 993.738 746.422C990.275 744.052 985.763 742.867 980.203 742.867C974.917 742.867 970.451 744.28 966.805 747.105C963.159 749.84 960.288 753.622 958.191 758.453C956.186 763.284 954.819 768.753 954.09 774.859L954.5 775.543Z" fill="black"/>
</g>
<g filter="url(#filter2_d_8_2)">
<path d="M267.441 856.176L82.4609 777.328V728.559L267.441 649.926V708.363L155.293 750.043L143.691 752.836V754.125L155.293 756.918L267.441 797.738V856.176Z" fill="black"/>
</g>
<g filter="url(#filter3_d_8_2)">
<path d="M1230.34 858.109V800.102L1342.92 757.992L1356.03 755.199V753.91L1342.92 750.258L1230.34 709.652V651.859L1417.47 730.492V779.262L1230.34 858.109Z" fill="black"/>
</g>
<g filter="url(#filter4_d_8_2)">
<path d="M1072.63 868.311L1160.67 636.719H1200.07L1112.04 868.311H1072.63Z" fill="black"/>
</g>
</g>
<defs>
<filter id="filter0_d_8_2" x="20" y="495" width="1460" height="519" filterUnits="userSpaceOnUse" color-interpolation-filters="sRGB">
<feFlood flood-opacity="0" result="BackgroundImageFix"/>
<feColorMatrix in="SourceAlpha" type="matrix" values="0 0 0 0 0 0 0 0 0 0 0 0 0 0 0 0 0 0 127 0" result="hardAlpha"/>
<feOffset dy="4"/>
<feGaussianBlur stdDeviation="10"/>
<feComposite in2="hardAlpha" operator="out"/>
<feColorMatrix type="matrix" values="0 0 0 0 0 0 0 0 0 0 0 0 0 0 0 0 0 0 0.25 0"/>
<feBlend mode="normal" in2="BackgroundImageFix" result="effect1_dropShadow_8_2"/>
<feBlend mode="normal" in="SourceGraphic" in2="effect1_dropShadow_8_2" result="shape"/>
</filter>
<filter id="filter1_d_8_2" x="194.109" y="534.719" width="967.07" height="456.152" filterUnits="userSpaceOnUse" color-interpolation-filters="sRGB">
<feFlood flood-opacity="0" result="BackgroundImageFix"/>
<feColorMatrix in="SourceAlpha" type="matrix" values="0 0 0 0 0 0 0 0 0 0 0 0 0 0 0 0 0 0 127 0" result="hardAlpha"/>
<feOffset dy="4"/>
<feGaussianBlur stdDeviation="60"/>
<feComposite in2="hardAlpha" operator="out"/>
<feColorMatrix type="matrix" values="0 0 0 0 0 0 0 0 0 0 0 0 0 0 0 0 0 0 0.25 0"/>
<feBlend mode="normal" in2="BackgroundImageFix" result="effect1_dropShadow_8_2"/>
<feBlend mode="normal" in="SourceGraphic" in2="effect1_dropShadow_8_2" result="shape"/>
</filter>
<filter id="filter2_d_8_2" x="-37.5391" y="533.926" width="424.98" height="446.25" filterUnits="userSpaceOnUse" color-interpolation-filters="sRGB">
<feFlood flood-opacity="0" result="BackgroundImageFix"/>
<feColorMatrix in="SourceAlpha" type="matrix" values="0 0 0 0 0 0 0 0 0 0 0 0 0 0 0 0 0 0 127 0" result="hardAlpha"/>
<feOffset dy="4"/>
<feGaussianBlur stdDeviation="60"/>
<feComposite in2="hardAlpha" operator="out"/>
<feColorMatrix type="matrix" values="0 0 0 0 0 0 0 0 0 0 0 0 0 0 0 0 0 0 0.25 0"/>
<feBlend mode="normal" in2="BackgroundImageFix" result="effect1_dropShadow_8_2"/>
<feBlend mode="normal" in="SourceGraphic" in2="effect1_dropShadow_8_2" result="shape"/>
</filter>
<filter id="filter3_d_8_2" x="1110.34" y="535.859" width="427.129" height="446.25" filterUnits="userSpaceOnUse" color-interpolation-filters="sRGB">
<feFlood flood-opacity="0" result="BackgroundImageFix"/>
<feColorMatrix in="SourceAlpha" type="matrix" values="0 0 0 0 0 0 0 0 0 0 0 0 0 0 0 0 0 0 127 0" result="hardAlpha"/>
<feOffset dy="4"/>
<feGaussianBlur stdDeviation="60"/>
<feComposite in2="hardAlpha" operator="out"/>
<feColorMatrix type="matrix" values="0 0 0 0 0 0 0 0 0 0 0 0 0 0 0 0 0 0 0.25 0"/>
<feBlend mode="normal" in2="BackgroundImageFix" result="effect1_dropShadow_8_2"/>
<feBlend mode="normal" in="SourceGraphic" in2="effect1_dropShadow_8_2" result="shape"/>
</filter>
<filter id="filter4_d_8_2" x="952.631" y="520.719" width="367.441" height="471.592" filterUnits="userSpaceOnUse" color-interpolation-filters="sRGB">
<feFlood flood-opacity="0" result="BackgroundImageFix"/>
<feColorMatrix in="SourceAlpha" type="matrix" values="0 0 0 0 0 0 0 0 0 0 0 0 0 0 0 0 0 0 127 0" result="hardAlpha"/>
<feOffset dy="4"/>
<feGaussianBlur stdDeviation="60"/>
<feComposite in2="hardAlpha" operator="out"/>
<feColorMatrix type="matrix" values="0 0 0 0 0 0 0 0 0 0 0 0 0 0 0 0 0 0 0.25 0"/>
<feBlend mode="normal" in2="BackgroundImageFix" result="effect1_dropShadow_8_2"/>
<feBlend mode="normal" in="SourceGraphic" in2="effect1_dropShadow_8_2" result="shape"/>
</filter>
<clipPath id="clip0_8_2">
<rect width="1500" height="1500" fill="white"/>
</clipPath>
</defs>
</svg>
