<svg width="1500" height="1500" viewBox="0 0 1500 1500" fill="none" xmlns="http://www.w3.org/2000/svg">
<path d="M750 225C889.239 225 1022.77 280.312 1121.23 378.769C1219.69 477.225 1275 610.761 1275 750C1275 889.239 1219.69 1022.77 1121.23 1121.23C1022.77 1219.69 889.239 1275 750 1275C610.761 1275 477.225 1219.69 378.769 1121.23C280.312 1022.77 225 889.239 225 750C225 610.761 280.312 477.225 378.769 378.769C477.225 280.312 610.761 225 750 225Z" fill="white" stroke="#4D2AB6" stroke-width="50"/>
<g filter="url(#filter0_d_3_37)">
<rect x="160" y="491" width="1180" height="519" rx="70" fill="#4D2AB6"/>
<rect x="145" y="476" width="1210" height="549" rx="85" stroke="white" stroke-width="30"/>
</g>
<g filter="url(#filter1_d_3_37)">
<mask id="path-4-outside-1_3_37" maskUnits="userSpaceOnUse" x="300" y="507" width="427" height="478" fill="black">
<rect fill="white" x="300" y="507" width="427" height="478"/>
<path d="M550.2 556.4C532.6 556.4 517 560.6 503.4 569C489.8 577 478.4 589 469.2 605C460 621 453 640.8 448.2 664.4C443.8 688 441.6 715.2 441.6 746C441.6 779.2 444 807.8 448.8 831.8C453.6 855.8 460.8 875.6 470.4 891.2C480.4 906.4 492.2 917.8 505.8 925.4C519.8 932.6 535.8 936.2 553.8 936.2C574.6 936.2 593.2 931 609.6 920.6C626.4 909.8 640.6 895 652.2 876.2C664.2 857 672.8 834.6 678 809L703.2 819.2C697.2 848 687 873.4 672.6 895.4C658.2 917.4 639.6 934.6 616.8 947C594 959 566.8 965 535.2 965C504 965 475.2 959.8 448.8 949.4C422.8 939 400.2 924.2 381 905C361.8 885.4 346.8 862.2 336 835.4C325.6 808.6 320.4 778.8 320.4 746C320.4 713.2 325.8 683.6 336.6 657.2C347.4 630.4 362.4 607.4 381.6 588.2C400.8 568.6 423 553.6 448.2 543.2C473.8 532.4 501.2 527 530.4 527C559.2 527 583.6 531.4 603.6 540.2C623.6 548.6 639.8 560.2 652.2 575C664.6 589.8 673.4 606.4 678.6 624.8L655.2 612.2L666 533H693V660.8H667.2C661.6 640.4 653.6 622.4 643.2 606.8C633.2 591.2 620.4 579 604.8 570.2C589.6 561 571.4 556.4 550.2 556.4Z"/>
</mask>
<path d="M550.2 556.4C532.6 556.4 517 560.6 503.4 569C489.8 577 478.4 589 469.2 605C460 621 453 640.8 448.2 664.4C443.8 688 441.6 715.2 441.6 746C441.6 779.2 444 807.8 448.8 831.8C453.6 855.8 460.8 875.6 470.4 891.2C480.4 906.4 492.2 917.8 505.8 925.4C519.8 932.6 535.8 936.2 553.8 936.2C574.6 936.2 593.2 931 609.6 920.6C626.4 909.8 640.6 895 652.2 876.2C664.2 857 672.8 834.6 678 809L703.2 819.2C697.2 848 687 873.4 672.6 895.4C658.2 917.4 639.6 934.6 616.8 947C594 959 566.8 965 535.2 965C504 965 475.2 959.8 448.8 949.4C422.8 939 400.2 924.2 381 905C361.8 885.4 346.8 862.2 336 835.4C325.6 808.6 320.4 778.8 320.4 746C320.4 713.2 325.8 683.6 336.6 657.2C347.4 630.4 362.4 607.4 381.6 588.2C400.8 568.6 423 553.6 448.2 543.2C473.8 532.4 501.2 527 530.4 527C559.2 527 583.6 531.4 603.6 540.2C623.6 548.6 639.8 560.2 652.2 575C664.6 589.8 673.4 606.4 678.6 624.8L655.2 612.2L666 533H693V660.8H667.2C661.6 640.4 653.6 622.4 643.2 606.8C633.2 591.2 620.4 579 604.8 570.2C589.6 561 571.4 556.4 550.2 556.4Z" fill="white"/>
<path d="M503.4 569L513.54 586.239L513.726 586.129L513.91 586.016L503.4 569ZM448.2 664.4L428.601 660.414L428.569 660.574L428.539 660.734L448.2 664.4ZM448.8 831.8L429.188 835.722L429.188 835.722L448.8 831.8ZM470.4 891.2L453.367 901.682L453.525 901.94L453.692 902.192L470.4 891.2ZM505.8 925.4L496.044 942.859L496.345 943.028L496.653 943.186L505.8 925.4ZM609.6 920.6L620.311 937.49L620.363 937.457L620.415 937.424L609.6 920.6ZM652.2 876.2L635.24 865.6L635.21 865.649L635.179 865.698L652.2 876.2ZM678 809L685.504 790.461L663.192 781.43L658.4 805.019L678 809ZM703.2 819.2L722.78 823.279L726.186 806.928L710.704 800.661L703.2 819.2ZM672.6 895.4L689.334 906.353L689.334 906.353L672.6 895.4ZM616.8 947L626.115 964.698L626.236 964.635L626.355 964.57L616.8 947ZM448.8 949.4L441.372 967.97L441.421 967.989L441.47 968.008L448.8 949.4ZM381 905L366.713 918.996L366.785 919.069L366.858 919.142L381 905ZM336 835.4L317.355 842.635L317.401 842.756L317.45 842.876L336 835.4ZM336.6 657.2L355.111 664.773L355.131 664.724L355.15 664.676L336.6 657.2ZM381.6 588.2L395.742 602.342L395.815 602.269L395.887 602.196L381.6 588.2ZM448.2 543.2L455.83 561.687L455.902 561.658L455.974 561.627L448.2 543.2ZM603.6 540.2L595.545 558.506L595.7 558.574L595.855 558.64L603.6 540.2ZM652.2 575L636.87 587.844L636.87 587.844L652.2 575ZM678.6 624.8L669.118 642.409L710.685 664.792L697.846 619.361L678.6 624.8ZM655.2 612.2L635.383 609.498L633.51 623.236L645.718 629.809L655.2 612.2ZM666 533V513H648.542L646.183 530.298L666 533ZM693 533H713V513H693V533ZM693 660.8V680.8H713V660.8H693ZM667.2 660.8L647.914 666.094L651.95 680.8H667.2V660.8ZM643.2 606.8L626.362 617.593L626.459 617.745L626.559 617.894L643.2 606.8ZM604.8 570.2L594.444 587.31L594.706 587.469L594.974 587.62L604.8 570.2ZM550.2 556.4V536.4C529.275 536.4 509.963 541.439 492.89 551.984L503.4 569L513.91 586.016C524.037 579.761 535.925 576.4 550.2 576.4V556.4ZM503.4 569L493.26 551.761C476.198 561.797 462.495 576.539 451.862 595.031L469.2 605L486.538 614.969C494.305 601.461 503.402 592.202 513.54 586.239L503.4 569ZM469.2 605L451.862 595.031C441.323 613.359 433.706 635.316 428.601 660.414L448.2 664.4L467.799 668.386C472.294 646.284 478.677 628.641 486.538 614.969L469.2 605ZM448.2 664.4L428.539 660.734C423.861 685.826 421.6 714.296 421.6 746H441.6H461.6C461.6 716.104 463.739 690.174 467.861 668.066L448.2 664.4ZM441.6 746H421.6C421.6 780.085 424.057 810.067 429.188 835.722L448.8 831.8L468.412 827.878C463.943 805.533 461.6 778.315 461.6 746H441.6ZM448.8 831.8L429.188 835.722C434.306 861.311 442.187 883.514 453.367 901.682L470.4 891.2L487.433 880.718C479.414 867.686 472.894 850.289 468.412 827.878L448.8 831.8ZM470.4 891.2L453.692 902.192C465.16 919.624 479.205 933.449 496.044 942.859L505.8 925.4L515.556 907.941C505.195 902.151 495.64 893.176 487.108 880.208L470.4 891.2ZM505.8 925.4L496.653 943.186C513.864 952.037 533.077 956.2 553.8 956.2V936.2V916.2C538.523 916.2 525.736 913.163 514.947 907.614L505.8 925.4ZM553.8 936.2V956.2C578.111 956.2 600.478 950.067 620.311 937.49L609.6 920.6L598.889 903.71C585.922 911.933 571.089 916.2 553.8 916.2V936.2ZM609.6 920.6L620.415 937.424C639.987 924.842 656.219 907.774 669.221 886.702L652.2 876.2L635.179 865.698C624.981 882.226 612.813 894.758 598.785 903.776L609.6 920.6ZM652.2 876.2L669.16 886.8C682.608 865.283 691.995 840.572 697.6 812.981L678 809L658.4 805.019C653.605 828.628 645.792 848.717 635.24 865.6L652.2 876.2ZM678 809L670.496 827.539L695.696 837.739L703.2 819.2L710.704 800.661L685.504 790.461L678 809ZM703.2 819.2L683.62 815.121C678.07 841.762 668.742 864.774 655.866 884.447L672.6 895.4L689.334 906.353C705.258 882.026 716.33 854.238 722.78 823.279L703.2 819.2ZM672.6 895.4L655.866 884.447C643.251 903.72 627.102 918.63 607.245 929.43L616.8 947L626.355 964.57C652.098 950.57 673.149 931.08 689.334 906.353L672.6 895.4ZM616.8 947L607.485 929.302C588.137 939.485 564.28 945 535.2 945V965V985C569.321 985 599.863 978.515 626.115 964.698L616.8 947ZM535.2 965V945C506.259 945 479.974 940.185 456.13 930.792L448.8 949.4L441.47 968.008C470.426 979.415 501.741 985 535.2 985V965ZM448.8 949.4L456.228 930.83C432.662 921.404 412.367 908.082 395.142 890.858L381 905L366.858 919.142C388.034 940.318 412.938 956.596 441.372 967.97L448.8 949.4ZM381 905L395.287 891.004C378.018 873.376 364.423 852.424 354.55 827.924L336 835.4L317.45 842.876C329.177 871.976 345.582 897.424 366.713 918.996L381 905ZM336 835.4L354.645 828.164C345.258 803.973 340.4 776.671 340.4 746H320.4H300.4C300.4 780.929 305.942 813.227 317.355 842.635L336 835.4ZM320.4 746H340.4C340.4 715.411 345.43 688.436 355.111 664.773L336.6 657.2L318.089 649.627C306.17 678.764 300.4 710.989 300.4 746H320.4ZM336.6 657.2L355.15 664.676C365.01 640.209 378.565 619.519 395.742 602.342L381.6 588.2L367.458 574.058C346.235 595.281 329.79 620.591 318.05 649.724L336.6 657.2ZM381.6 588.2L395.887 602.196C413.207 584.515 433.146 571.049 455.83 561.687L448.2 543.2L440.57 524.713C412.854 536.151 388.393 552.685 367.313 574.204L381.6 588.2ZM448.2 543.2L455.974 561.627C478.989 551.918 503.732 547 530.4 547V527V507C498.668 507 468.611 512.882 440.426 524.773L448.2 543.2ZM530.4 527V547C557.266 547 578.754 551.118 595.545 558.506L603.6 540.2L611.655 521.894C588.446 511.682 561.134 507 530.4 507V527ZM603.6 540.2L595.855 558.64C613.284 565.96 626.758 575.775 636.87 587.844L652.2 575L667.53 562.156C652.843 544.625 633.916 531.24 611.345 521.76L603.6 540.2ZM652.2 575L636.87 587.844C647.475 600.502 654.929 614.584 659.354 630.239L678.6 624.8L697.846 619.361C691.871 598.216 681.725 579.098 667.53 562.156L652.2 575ZM678.6 624.8L688.082 607.191L664.682 594.591L655.2 612.2L645.718 629.809L669.118 642.409L678.6 624.8ZM655.2 612.2L675.017 614.902L685.817 535.702L666 533L646.183 530.298L635.383 609.498L655.2 612.2ZM666 533V553H693V533V513H666V533ZM693 533H673V660.8H693H713V533H693ZM693 660.8V640.8H667.2V660.8V680.8H693V660.8ZM667.2 660.8L686.487 655.506C680.392 633.305 671.569 613.297 659.841 595.706L643.2 606.8L626.559 617.894C635.631 631.503 642.808 647.495 647.914 666.094L667.2 660.8ZM643.2 606.8L660.038 596.007C648.339 577.757 633.169 563.24 614.626 552.78L604.8 570.2L594.974 587.62C607.631 594.759 618.061 604.643 626.362 617.593L643.2 606.8ZM604.8 570.2L615.156 553.09C596.276 541.663 574.341 536.4 550.2 536.4V556.4V576.4C568.459 576.4 582.924 580.337 594.444 587.31L604.8 570.2Z" fill="#3B1F91" mask="url(#path-4-outside-1_3_37)"/>
</g>
<g filter="url(#filter2_d_3_37)">
<mask id="path-6-outside-2_3_37" maskUnits="userSpaceOnUse" x="694" y="677" width="452" height="149" fill="black">
<rect fill="white" x="694" y="677" width="452" height="149"/>
<path d="M744.407 805.538C736.595 805.538 729.881 803.829 724.266 800.411C718.65 796.993 714.354 792.257 711.375 786.202C708.396 780.099 706.907 773.092 706.907 765.182V763.644C706.907 755.782 708.396 748.824 711.375 742.77C714.354 736.666 718.626 731.905 724.192 728.487C729.808 725.021 736.497 723.287 744.261 723.287C752.122 723.287 758.836 725.021 764.402 728.487C769.969 731.905 774.241 736.642 777.22 742.696C780.198 748.751 781.688 755.733 781.688 763.644V765.182C781.688 773.092 780.198 780.099 777.22 786.202C774.241 792.257 769.969 796.993 764.402 800.411C758.836 803.829 752.171 805.538 744.407 805.538ZM744.407 789.132C748.118 789.132 751.146 788.131 753.489 786.129C755.833 784.127 757.566 781.344 758.689 777.779C759.812 774.166 760.374 769.967 760.374 765.182V763.644C760.374 758.956 759.812 754.83 758.689 751.266C757.566 747.652 755.809 744.845 753.416 742.843C751.072 740.792 748.021 739.767 744.261 739.767C740.599 739.767 737.571 740.792 735.179 742.843C732.786 744.845 731.028 747.652 729.905 751.266C728.831 754.83 728.294 758.956 728.294 763.644V765.182C728.294 769.967 728.831 774.166 729.905 777.779C731.028 781.393 732.786 784.2 735.179 786.202C737.571 788.155 740.647 789.132 744.407 789.132ZM822.63 805.538C816.331 805.538 810.911 803.927 806.37 800.704C801.878 797.433 798.436 792.892 796.043 787.081C793.65 781.222 792.454 774.386 792.454 766.573V765.035C792.454 756.686 793.65 749.386 796.043 743.136C798.484 736.886 801.951 732.027 806.443 728.561C810.936 725.045 816.307 723.287 822.557 723.287C826.902 723.287 830.711 724.166 833.982 725.924C837.254 727.633 840.086 730.074 842.479 733.248V704.83L831.053 702.633V689.742H842.479H863.865V788.985L874.119 791.183V804H845.335L843.724 794.332C841.233 797.994 838.255 800.777 834.788 802.682C831.37 804.586 827.317 805.538 822.63 805.538ZM829.002 788.912C831.98 788.912 834.593 788.277 836.839 787.008C839.085 785.738 840.965 783.907 842.479 781.515V747.896C841.014 745.357 839.158 743.404 836.912 742.037C834.666 740.621 832.078 739.913 829.148 739.913C825.584 739.913 822.654 740.987 820.359 743.136C818.113 745.235 816.453 748.165 815.379 751.925C814.354 755.685 813.841 760.055 813.841 765.035V766.573C813.841 773.507 815.013 778.976 817.356 782.979C819.7 786.935 823.582 788.912 829.002 788.912ZM880.271 804V791.183L890.599 788.985V739.84L879.173 737.643V724.752H911.985V788.985L922.239 791.183V804H880.271ZM889.866 707.979V689.742H911.985V707.979H889.866ZM967.356 805.538C959.788 805.538 953.172 803.878 947.508 800.558C941.844 797.188 937.449 792.574 934.324 786.715C931.248 780.855 929.71 774.166 929.71 766.646V763.717C929.71 755.855 931.175 748.897 934.104 742.843C937.034 736.739 941.16 731.954 946.482 728.487C951.854 725.021 958.177 723.287 965.452 723.287C972.63 723.287 978.66 724.703 983.543 727.535C988.426 730.367 992.137 734.444 994.676 739.767C997.215 745.089 998.484 751.534 998.484 759.103V770.748H951.902L951.756 771.188C952.049 774.654 952.903 777.755 954.319 780.489C955.784 783.175 957.835 785.299 960.472 786.861C963.108 788.375 966.307 789.132 970.066 789.132C973.973 789.132 977.61 788.644 980.979 787.667C984.397 786.642 987.718 785.152 990.94 783.199L996.727 796.383C993.455 799.02 989.329 801.217 984.349 802.975C979.417 804.684 973.753 805.538 967.356 805.538ZM952.049 756.612H978.489V754.708C978.489 751.485 978.05 748.727 977.171 746.432C976.341 744.088 974.974 742.281 973.069 741.012C971.214 739.742 968.797 739.107 965.818 739.107C962.986 739.107 960.594 739.864 958.641 741.378C956.688 742.843 955.149 744.869 954.026 747.457C952.952 750.045 952.22 752.975 951.829 756.246L952.049 756.612ZM1002.07 813.155L1046.09 697.359H1065.79L1021.78 813.155H1002.07ZM1069.68 799.605V779.83L1108.05 765.475L1112.52 764.522V764.083L1108.05 762.838L1069.68 748.995V729.293L1133.47 756.1V772.726L1069.68 799.605Z"/>
</mask>
<path d="M744.407 805.538C736.595 805.538 729.881 803.829 724.266 800.411C718.65 796.993 714.354 792.257 711.375 786.202C708.396 780.099 706.907 773.092 706.907 765.182V763.644C706.907 755.782 708.396 748.824 711.375 742.77C714.354 736.666 718.626 731.905 724.192 728.487C729.808 725.021 736.497 723.287 744.261 723.287C752.122 723.287 758.836 725.021 764.402 728.487C769.969 731.905 774.241 736.642 777.22 742.696C780.198 748.751 781.688 755.733 781.688 763.644V765.182C781.688 773.092 780.198 780.099 777.22 786.202C774.241 792.257 769.969 796.993 764.402 800.411C758.836 803.829 752.171 805.538 744.407 805.538ZM744.407 789.132C748.118 789.132 751.146 788.131 753.489 786.129C755.833 784.127 757.566 781.344 758.689 777.779C759.812 774.166 760.374 769.967 760.374 765.182V763.644C760.374 758.956 759.812 754.83 758.689 751.266C757.566 747.652 755.809 744.845 753.416 742.843C751.072 740.792 748.021 739.767 744.261 739.767C740.599 739.767 737.571 740.792 735.179 742.843C732.786 744.845 731.028 747.652 729.905 751.266C728.831 754.83 728.294 758.956 728.294 763.644V765.182C728.294 769.967 728.831 774.166 729.905 777.779C731.028 781.393 732.786 784.2 735.179 786.202C737.571 788.155 740.647 789.132 744.407 789.132ZM822.63 805.538C816.331 805.538 810.911 803.927 806.37 800.704C801.878 797.433 798.436 792.892 796.043 787.081C793.65 781.222 792.454 774.386 792.454 766.573V765.035C792.454 756.686 793.65 749.386 796.043 743.136C798.484 736.886 801.951 732.027 806.443 728.561C810.936 725.045 816.307 723.287 822.557 723.287C826.902 723.287 830.711 724.166 833.982 725.924C837.254 727.633 840.086 730.074 842.479 733.248V704.83L831.053 702.633V689.742H842.479H863.865V788.985L874.119 791.183V804H845.335L843.724 794.332C841.233 797.994 838.255 800.777 834.788 802.682C831.37 804.586 827.317 805.538 822.63 805.538ZM829.002 788.912C831.98 788.912 834.593 788.277 836.839 787.008C839.085 785.738 840.965 783.907 842.479 781.515V747.896C841.014 745.357 839.158 743.404 836.912 742.037C834.666 740.621 832.078 739.913 829.148 739.913C825.584 739.913 822.654 740.987 820.359 743.136C818.113 745.235 816.453 748.165 815.379 751.925C814.354 755.685 813.841 760.055 813.841 765.035V766.573C813.841 773.507 815.013 778.976 817.356 782.979C819.7 786.935 823.582 788.912 829.002 788.912ZM880.271 804V791.183L890.599 788.985V739.84L879.173 737.643V724.752H911.985V788.985L922.239 791.183V804H880.271ZM889.866 707.979V689.742H911.985V707.979H889.866ZM967.356 805.538C959.788 805.538 953.172 803.878 947.508 800.558C941.844 797.188 937.449 792.574 934.324 786.715C931.248 780.855 929.71 774.166 929.71 766.646V763.717C929.71 755.855 931.175 748.897 934.104 742.843C937.034 736.739 941.16 731.954 946.482 728.487C951.854 725.021 958.177 723.287 965.452 723.287C972.63 723.287 978.66 724.703 983.543 727.535C988.426 730.367 992.137 734.444 994.676 739.767C997.215 745.089 998.484 751.534 998.484 759.103V770.748H951.902L951.756 771.188C952.049 774.654 952.903 777.755 954.319 780.489C955.784 783.175 957.835 785.299 960.472 786.861C963.108 788.375 966.307 789.132 970.066 789.132C973.973 789.132 977.61 788.644 980.979 787.667C984.397 786.642 987.718 785.152 990.94 783.199L996.727 796.383C993.455 799.02 989.329 801.217 984.349 802.975C979.417 804.684 973.753 805.538 967.356 805.538ZM952.049 756.612H978.489V754.708C978.489 751.485 978.05 748.727 977.171 746.432C976.341 744.088 974.974 742.281 973.069 741.012C971.214 739.742 968.797 739.107 965.818 739.107C962.986 739.107 960.594 739.864 958.641 741.378C956.688 742.843 955.149 744.869 954.026 747.457C952.952 750.045 952.22 752.975 951.829 756.246L952.049 756.612ZM1002.07 813.155L1046.09 697.359H1065.79L1021.78 813.155H1002.07ZM1069.68 799.605V779.83L1108.05 765.475L1112.52 764.522V764.083L1108.05 762.838L1069.68 748.995V729.293L1133.47 756.1V772.726L1069.68 799.605Z" fill="white"/>
<path d="M711.375 786.202L700.591 791.465L700.599 791.482L700.607 791.499L711.375 786.202ZM711.375 742.77L722.143 748.067L722.151 748.049L722.159 748.032L711.375 742.77ZM724.192 728.487L730.472 738.713L730.484 738.706L730.496 738.698L724.192 728.487ZM764.402 728.487L758.058 738.673L758.091 738.693L758.123 738.713L764.402 728.487ZM777.22 786.202L787.987 791.499L787.996 791.482L788.004 791.465L777.22 786.202ZM764.402 800.411L758.123 790.185L764.402 800.411ZM758.689 777.779L770.135 781.385L770.142 781.363L770.149 781.341L758.689 777.779ZM758.689 751.266L747.23 754.827L747.237 754.85L747.244 754.872L758.689 751.266ZM753.416 742.843L745.514 751.874L745.614 751.961L745.715 752.046L753.416 742.843ZM735.179 742.843L742.879 752.046L742.934 752L742.988 751.954L735.179 742.843ZM729.905 751.266L718.446 747.704L718.431 747.753L718.416 747.803L729.905 751.266ZM729.905 777.779L718.403 781.199L718.424 781.27L718.446 781.341L729.905 777.779ZM735.179 786.202L727.478 795.405L727.534 795.452L727.59 795.498L735.179 786.202ZM744.407 805.538V793.538C738.377 793.538 733.912 792.235 730.505 790.161L724.266 800.411L718.026 810.662C725.849 815.423 734.812 817.538 744.407 817.538V805.538ZM724.266 800.411L730.505 790.161C726.893 787.962 724.142 784.969 722.143 780.905L711.375 786.202L700.607 791.499C704.565 799.545 710.407 806.024 718.026 810.662L724.266 800.411ZM711.375 786.202L722.159 780.939C720.102 776.724 718.907 771.567 718.907 765.182H706.907H694.907C694.907 774.616 696.69 783.473 700.591 791.465L711.375 786.202ZM706.907 765.182H718.907V763.644H706.907H694.907V765.182H706.907ZM706.907 763.644H718.907C718.907 757.317 720.099 752.222 722.143 748.067L711.375 742.77L700.607 737.473C696.694 745.427 694.907 754.248 694.907 763.644H706.907ZM711.375 742.77L722.159 748.032C724.18 743.892 726.927 740.89 730.472 738.713L724.192 728.487L717.913 718.261C710.324 722.921 704.527 729.44 700.591 737.507L711.375 742.77ZM724.192 728.487L730.496 738.698C733.905 736.594 738.326 735.287 744.261 735.287V723.287V711.287C734.669 711.287 725.711 713.447 717.888 718.277L724.192 728.487ZM744.261 723.287V735.287C750.329 735.287 754.744 736.609 758.058 738.673L764.402 728.487L770.746 718.301C762.928 713.432 753.915 711.287 744.261 711.287V723.287ZM764.402 728.487L758.123 738.713C761.692 740.905 764.439 743.902 766.452 747.993L777.22 742.696L787.987 737.399C784.043 729.381 778.246 722.906 770.682 718.261L764.402 728.487ZM777.22 742.696L766.452 747.993C768.491 752.139 769.688 757.255 769.688 763.644H781.688H793.688C793.688 754.212 791.905 745.363 787.987 737.399L777.22 742.696ZM781.688 763.644H769.688V765.182H781.688H793.688V763.644H781.688ZM781.688 765.182H769.688C769.688 771.567 768.492 776.724 766.435 780.939L777.22 786.202L788.004 791.465C791.904 783.473 793.688 774.616 793.688 765.182H781.688ZM777.22 786.202L766.452 780.905C764.439 784.997 761.692 787.994 758.123 790.185L764.402 800.411L770.682 810.637C778.246 805.993 784.043 799.517 787.987 791.499L777.22 786.202ZM764.402 800.411L758.123 790.185C754.776 792.241 750.376 793.538 744.407 793.538V805.538V817.538C753.966 817.538 762.896 815.418 770.682 810.637L764.402 800.411ZM744.407 789.132V801.132C750.367 801.132 756.345 799.472 761.283 795.253L753.489 786.129L745.695 777.004C745.747 776.96 745.783 776.958 745.694 776.988C745.576 777.027 745.188 777.132 744.407 777.132V789.132ZM753.489 786.129L761.283 795.253C765.669 791.507 768.48 786.637 770.135 781.385L758.689 777.779L747.244 774.173C746.653 776.05 745.997 776.747 745.695 777.004L753.489 786.129ZM758.689 777.779L770.149 781.341C771.71 776.316 772.374 770.871 772.374 765.182H760.374H748.374C748.374 769.063 747.915 772.016 747.23 774.218L758.689 777.779ZM760.374 765.182H772.374V763.644H760.374H748.374V765.182H760.374ZM760.374 763.644H772.374C772.374 758.029 771.705 752.643 770.135 747.66L758.689 751.266L747.244 754.872C747.92 757.017 748.374 759.883 748.374 763.644H760.374ZM758.689 751.266L770.149 747.704C768.488 742.361 765.623 737.41 761.117 733.64L753.416 742.843L745.715 752.046C745.994 752.279 746.645 752.944 747.23 754.827L758.689 751.266ZM753.416 742.843L761.318 733.812C756.355 729.469 750.296 727.767 744.261 727.767V739.767V751.767C745.054 751.767 745.44 751.875 745.547 751.911C745.624 751.936 745.574 751.927 745.514 751.874L753.416 742.843ZM744.261 739.767V727.767C738.225 727.767 732.282 729.52 727.369 733.732L735.179 742.843L742.988 751.954C743.004 751.941 743.01 751.93 743.093 751.901C743.201 751.865 743.551 751.767 744.261 751.767V739.767ZM735.179 742.843L727.478 733.64C722.972 737.41 720.107 742.361 718.446 747.704L729.905 751.266L741.365 754.827C741.95 752.944 742.601 752.279 742.879 752.046L735.179 742.843ZM729.905 751.266L718.416 747.803C716.929 752.737 716.294 758.072 716.294 763.644H728.294H740.294C740.294 759.84 740.733 756.923 741.395 754.728L729.905 751.266ZM728.294 763.644H716.294V765.182H728.294H740.294V763.644H728.294ZM728.294 765.182H716.294C716.294 770.829 716.924 776.224 718.403 781.199L729.905 777.779L741.408 774.36C740.738 772.108 740.294 769.105 740.294 765.182H728.294ZM729.905 777.779L718.446 781.341C720.107 786.684 722.972 791.635 727.478 795.405L735.179 786.202L742.879 776.999C742.601 776.766 741.95 776.101 741.365 774.218L729.905 777.779ZM735.179 786.202L727.59 795.498C732.562 799.557 738.504 801.132 744.407 801.132V789.132V777.132C743.561 777.132 743.1 777.022 742.911 776.962C742.817 776.932 742.775 776.91 742.768 776.906C742.763 776.904 742.762 776.903 742.764 776.904C742.766 776.906 742.768 776.907 742.767 776.906L735.179 786.202ZM806.37 800.704L799.306 810.404L799.365 810.448L799.425 810.49L806.37 800.704ZM796.043 787.081L784.933 791.617L784.94 791.634L784.947 791.65L796.043 787.081ZM796.043 743.136L784.865 738.77L784.851 738.808L784.836 738.846L796.043 743.136ZM806.443 728.561L813.775 738.061L813.807 738.036L813.839 738.011L806.443 728.561ZM833.982 725.924L828.303 736.495L828.364 736.528L828.426 736.56L833.982 725.924ZM842.479 733.248L832.896 740.472L854.479 769.101V733.248H842.479ZM842.479 704.83H854.479V694.918L844.745 693.046L842.479 704.83ZM831.053 702.633H819.053V712.545L828.787 714.417L831.053 702.633ZM831.053 689.742V677.742H819.053V689.742H831.053ZM863.865 689.742H875.865V677.742H863.865V689.742ZM863.865 788.985H851.865V798.686L861.351 800.719L863.865 788.985ZM874.119 791.183H886.119V781.482L876.633 779.449L874.119 791.183ZM874.119 804V816H886.119V804H874.119ZM845.335 804L833.498 805.973L835.169 816H845.335V804ZM843.724 794.332L855.56 792.359L850.638 762.824L833.801 787.584L843.724 794.332ZM834.788 802.682L829.011 792.164L828.979 792.181L828.948 792.199L834.788 802.682ZM842.479 781.515L852.619 787.93L854.479 784.992V781.515H842.479ZM842.479 747.896H854.479V744.683L852.873 741.9L842.479 747.896ZM836.912 742.037L830.512 752.188L830.592 752.238L830.673 752.287L836.912 742.037ZM820.359 743.136L828.554 751.902L828.56 751.896L820.359 743.136ZM815.379 751.925L803.841 748.628L803.821 748.698L803.802 748.767L815.379 751.925ZM817.356 782.979L807 789.042L807.017 789.069L807.033 789.097L817.356 782.979ZM822.63 805.538V793.538C818.48 793.538 815.566 792.516 813.315 790.918L806.37 800.704L799.425 810.49C806.256 815.338 814.182 817.538 822.63 817.538V805.538ZM806.37 800.704L813.434 791.004C810.96 789.202 808.801 786.547 807.139 782.512L796.043 787.081L784.947 791.65C788.07 799.236 792.796 805.663 799.306 810.404L806.37 800.704ZM796.043 787.081L807.152 782.545C805.468 778.42 804.454 773.183 804.454 766.573H792.454H780.454C780.454 775.588 781.833 784.023 784.933 791.617L796.043 787.081ZM792.454 766.573H804.454V765.035H792.454H780.454V766.573H792.454ZM792.454 765.035H804.454C804.454 757.802 805.494 752.014 807.25 747.426L796.043 743.136L784.836 738.846C781.807 746.758 780.454 755.569 780.454 765.035H792.454ZM796.043 743.136L807.22 747.502C809.015 742.907 811.299 739.971 813.775 738.061L806.443 728.561L799.112 719.061C792.604 724.083 787.953 730.865 784.865 738.77L796.043 743.136ZM806.443 728.561L813.839 738.011C816.015 736.308 818.715 735.287 822.557 735.287V723.287V711.287C813.898 711.287 805.856 713.782 799.048 719.11L806.443 728.561ZM822.557 723.287V735.287C825.258 735.287 827.053 735.823 828.303 736.495L833.982 725.924L839.662 715.353C834.369 712.509 828.546 711.287 822.557 711.287V723.287ZM833.982 725.924L828.426 736.56C830 737.382 831.492 738.609 832.896 740.472L842.479 733.248L852.061 726.024C848.68 721.54 844.508 717.883 839.539 715.288L833.982 725.924ZM842.479 733.248H854.479V704.83H842.479H830.479V733.248H842.479ZM842.479 704.83L844.745 693.046L833.319 690.849L831.053 702.633L828.787 714.417L840.212 716.614L842.479 704.83ZM831.053 702.633H843.053V689.742H831.053H819.053V702.633H831.053ZM831.053 689.742V701.742H842.479V689.742V677.742H831.053V689.742ZM842.479 689.742V701.742H863.865V689.742V677.742H842.479V689.742ZM863.865 689.742H851.865V788.985H863.865H875.865V689.742H863.865ZM863.865 788.985L861.351 800.719L871.605 802.916L874.119 791.183L876.633 779.449L866.38 777.252L863.865 788.985ZM874.119 791.183H862.119V804H874.119H886.119V791.183H874.119ZM874.119 804V792H845.335V804V816H874.119V804ZM845.335 804L857.172 802.027L855.56 792.359L843.724 794.332L831.887 796.305L833.498 805.973L845.335 804ZM843.724 794.332L833.801 787.584C832.246 789.87 830.628 791.276 829.011 792.164L834.788 802.682L840.565 813.199C845.882 810.279 850.22 806.118 853.647 801.08L843.724 794.332ZM834.788 802.682L828.948 792.199C827.638 792.928 825.677 793.538 822.63 793.538V805.538V817.538C828.957 817.538 835.102 816.243 840.629 813.164L834.788 802.682ZM829.002 788.912V800.912C833.727 800.912 838.434 799.89 842.744 797.455L836.839 787.008L830.934 776.561C830.751 776.664 830.234 776.912 829.002 776.912V788.912ZM836.839 787.008L842.744 797.455C846.876 795.119 850.153 791.829 852.619 787.93L842.479 781.515L832.338 775.099C831.777 775.985 831.294 776.358 830.934 776.561L836.839 787.008ZM842.479 781.515H854.479V747.896H842.479H830.479V781.515H842.479ZM842.479 747.896L852.873 741.9C850.519 737.821 847.308 734.317 843.151 731.787L836.912 742.037L830.673 752.287C831.008 752.492 831.508 752.894 832.084 753.893L842.479 747.896ZM836.912 742.037L843.312 731.886C838.955 729.139 834.101 727.913 829.148 727.913V739.913V751.913C830.055 751.913 830.377 752.103 830.512 752.188L836.912 742.037ZM829.148 739.913V727.913C822.978 727.913 816.978 729.863 812.158 734.375L820.359 743.136L828.56 751.896C828.565 751.892 828.543 751.912 828.499 751.939C828.455 751.966 828.42 751.981 828.409 751.985C828.377 751.997 828.578 751.913 829.148 751.913V739.913ZM820.359 743.136L812.165 734.369C807.951 738.309 805.353 743.336 803.841 748.628L815.379 751.925L826.917 755.221C827.554 752.994 828.276 752.162 828.554 751.902L820.359 743.136ZM815.379 751.925L803.802 748.767C802.431 753.795 801.841 759.268 801.841 765.035H813.841H825.841C825.841 760.841 826.276 757.574 826.956 755.082L815.379 751.925ZM813.841 765.035H801.841V766.573H813.841H825.841V765.035H813.841ZM813.841 766.573H801.841C801.841 774.66 803.175 782.507 807 789.042L817.356 782.979L827.713 776.917C826.85 775.444 825.841 772.354 825.841 766.573H813.841ZM817.356 782.979L807.033 789.097C811.958 797.409 820.239 800.912 829.002 800.912V788.912V776.912C827.733 776.912 827.365 776.681 827.473 776.736C827.524 776.763 827.606 776.817 827.681 776.888C827.752 776.956 827.744 776.97 827.68 776.862L817.356 782.979ZM880.271 804H868.271V816H880.271V804ZM880.271 791.183L877.774 779.445L868.271 781.467V791.183H880.271ZM890.599 788.985L893.096 800.723L902.599 798.701V788.985H890.599ZM890.599 739.84H902.599V729.928L892.865 728.056L890.599 739.84ZM879.173 737.643H867.173V747.555L876.907 749.427L879.173 737.643ZM879.173 724.752V712.752H867.173V724.752H879.173ZM911.985 724.752H923.985V712.752H911.985V724.752ZM911.985 788.985H899.985V798.686L909.471 800.719L911.985 788.985ZM922.239 791.183H934.239V781.482L924.754 779.449L922.239 791.183ZM922.239 804V816H934.239V804H922.239ZM889.866 707.979H877.866V719.979H889.866V707.979ZM889.866 689.742V677.742H877.866V689.742H889.866ZM911.985 689.742H923.985V677.742H911.985V689.742ZM911.985 707.979V719.979H923.985V707.979H911.985ZM880.271 804H892.271V791.183H880.271H868.271V804H880.271ZM880.271 791.183L882.769 802.92L893.096 800.723L890.599 788.985L888.101 777.248L877.774 779.445L880.271 791.183ZM890.599 788.985H902.599V739.84H890.599H878.599V788.985H890.599ZM890.599 739.84L892.865 728.056L881.439 725.859L879.173 737.643L876.907 749.427L888.332 751.624L890.599 739.84ZM879.173 737.643H891.173V724.752H879.173H867.173V737.643H879.173ZM879.173 724.752V736.752H911.985V724.752V712.752H879.173V724.752ZM911.985 724.752H899.985V788.985H911.985H923.985V724.752H911.985ZM911.985 788.985L909.471 800.719L919.725 802.916L922.239 791.183L924.754 779.449L914.5 777.252L911.985 788.985ZM922.239 791.183H910.239V804H922.239H934.239V791.183H922.239ZM922.239 804V792H880.271V804V816H922.239V804ZM889.866 707.979H901.866V689.742H889.866H877.866V707.979H889.866ZM889.866 689.742V701.742H911.985V689.742V677.742H889.866V689.742ZM911.985 689.742H899.985V707.979H911.985H923.985V689.742H911.985ZM911.985 707.979V695.979H889.866V707.979V719.979H911.985V707.979ZM947.508 800.558L941.373 810.871L941.406 810.891L941.439 810.91L947.508 800.558ZM934.324 786.715L923.699 792.293L923.718 792.327L923.736 792.362L934.324 786.715ZM934.104 742.843L944.906 748.07L944.915 748.053L944.923 748.036L934.104 742.843ZM946.482 728.487L939.975 718.405L939.954 718.419L939.933 718.432L946.482 728.487ZM998.484 770.748V782.748H1010.48V770.748H998.484ZM951.902 770.748V758.748H943.253L940.518 766.953L951.902 770.748ZM951.756 771.188L940.372 767.393L939.59 769.736L939.798 772.198L951.756 771.188ZM954.319 780.489L943.663 786.008L943.723 786.122L943.785 786.235L954.319 780.489ZM960.472 786.861L954.354 797.185L954.425 797.227L954.497 797.268L960.472 786.861ZM980.979 787.667L984.32 799.193L984.374 799.177L984.428 799.161L980.979 787.667ZM990.94 783.199L1001.93 778.377L996.427 765.842L984.721 772.937L990.94 783.199ZM996.727 796.383L1004.26 805.726L1011.4 799.966L1007.71 791.56L996.727 796.383ZM984.349 802.975L988.278 814.313L988.31 814.302L988.342 814.29L984.349 802.975ZM952.049 756.612L941.759 762.786L945.255 768.612H952.049V756.612ZM978.489 756.612V768.612H990.489V756.612H978.489ZM977.171 746.432L965.859 750.438L965.91 750.581L965.965 750.723L977.171 746.432ZM973.069 741.012L966.293 750.915L966.353 750.956L966.413 750.996L973.069 741.012ZM958.641 741.378L965.841 750.978L965.917 750.921L965.991 750.863L958.641 741.378ZM954.026 747.457L943.018 742.68L942.98 742.768L942.943 742.856L954.026 747.457ZM951.829 756.246L939.914 754.823L939.427 758.9L941.539 762.42L951.829 756.246ZM967.356 805.538V793.538C961.591 793.538 957.134 792.291 953.576 790.205L947.508 800.558L941.439 810.91C949.209 815.465 957.985 817.538 967.356 817.538V805.538ZM947.508 800.558L953.642 790.244C949.876 788.004 947.015 785.01 944.912 781.068L934.324 786.715L923.736 792.362C927.883 800.138 933.811 806.373 941.373 810.871L947.508 800.558ZM934.324 786.715L944.949 781.137C942.893 777.22 941.71 772.49 941.71 766.646H929.71H917.71C917.71 775.842 919.603 784.491 923.699 792.293L934.324 786.715ZM929.71 766.646H941.71V763.717H929.71H917.71V766.646H929.71ZM929.71 763.717H941.71C941.71 757.362 942.888 752.241 944.906 748.07L934.104 742.843L923.303 737.616C919.462 745.554 917.71 754.349 917.71 763.717H929.71ZM934.104 742.843L944.923 748.036C946.967 743.777 949.673 740.73 953.032 738.542L946.482 728.487L939.933 718.432C932.647 723.178 927.102 729.701 923.286 737.65L934.104 742.843ZM946.482 728.487L952.99 738.57C956.164 736.521 960.158 735.287 965.452 735.287V723.287V711.287C956.196 711.287 947.544 713.52 939.975 718.405L946.482 728.487ZM965.452 723.287V735.287C971.08 735.287 974.902 736.396 977.522 737.916L983.543 727.535L989.564 717.155C982.418 713.011 974.18 711.287 965.452 711.287V723.287ZM983.543 727.535L977.522 737.916C980.216 739.478 982.298 741.691 983.845 744.934L994.676 739.767L1005.51 734.6C1001.98 727.198 996.635 721.256 989.564 717.155L983.543 727.535ZM994.676 739.767L983.845 744.934C985.428 748.252 986.484 752.833 986.484 759.103H998.484H1010.48C1010.48 750.236 1009 741.926 1005.51 734.6L994.676 739.767ZM998.484 759.103H986.484V770.748H998.484H1010.48V759.103H998.484ZM998.484 770.748V758.748H951.902V770.748V782.748H998.484V770.748ZM951.902 770.748L940.518 766.953L940.372 767.393L951.756 771.188L963.14 774.982L963.287 774.543L951.902 770.748ZM951.756 771.188L939.798 772.198C940.207 777.035 941.433 781.7 943.663 786.008L954.319 780.489L964.975 774.971C964.374 773.81 963.89 772.274 963.713 770.177L951.756 771.188ZM954.319 780.489L943.785 786.235C946.285 790.82 949.864 794.524 954.354 797.185L960.472 786.861L966.589 776.538C965.806 776.074 965.283 775.529 964.854 774.743L954.319 780.489ZM960.472 786.861L954.497 797.268C959.336 800.046 964.702 801.132 970.066 801.132V789.132V777.132C967.911 777.132 966.881 776.704 966.446 776.454L960.472 786.861ZM970.066 789.132V801.132C974.976 801.132 979.75 800.517 984.32 799.193L980.979 787.667L977.639 776.141C975.471 776.77 972.969 777.132 970.066 777.132V789.132ZM980.979 787.667L984.428 799.161C988.871 797.828 993.118 795.911 997.16 793.462L990.94 783.199L984.721 772.937C982.318 774.393 979.924 775.455 977.531 776.173L980.979 787.667ZM990.94 783.199L979.952 788.022L985.738 801.205L996.727 796.383L1007.71 791.56L1001.93 778.377L990.94 783.199ZM996.727 796.383L989.196 787.04C987.216 788.636 984.368 790.242 980.355 791.659L984.349 802.975L988.342 814.29C994.29 812.191 999.695 809.403 1004.26 805.726L996.727 796.383ZM984.349 802.975L980.419 791.636C977 792.821 972.706 793.538 967.356 793.538V805.538V817.538C974.8 817.538 981.834 816.546 988.278 814.313L984.349 802.975ZM952.049 756.612V768.612H978.489V756.612V744.612H952.049V756.612ZM978.489 756.612H990.489V754.708H978.489H966.489V756.612H978.489ZM978.489 754.708H990.489C990.489 750.451 989.916 746.158 988.377 742.14L977.171 746.432L965.965 750.723C966.184 751.295 966.489 752.52 966.489 754.708H978.489ZM977.171 746.432L988.482 742.425C986.866 737.862 983.976 733.861 979.726 731.027L973.069 741.012L966.413 750.996C966.259 750.894 966.089 750.739 965.954 750.56C965.825 750.39 965.816 750.315 965.859 750.438L977.171 746.432ZM973.069 741.012L979.846 731.108C975.439 728.093 970.441 727.107 965.818 727.107V739.107V751.107C966.469 751.107 966.772 751.178 966.817 751.19C966.842 751.196 966.621 751.14 966.293 750.915L973.069 741.012ZM965.818 739.107V727.107C960.732 727.107 955.647 728.516 951.29 731.893L958.641 741.378L965.991 750.863C965.922 750.917 965.838 750.972 965.745 751.02C965.652 751.069 965.573 751.099 965.519 751.116C965.405 751.152 965.475 751.107 965.818 751.107V739.107ZM958.641 741.378L951.441 731.778C947.577 734.676 944.84 738.482 943.018 742.68L954.026 747.457L965.035 752.234C965.459 751.257 965.798 751.01 965.841 750.978L958.641 741.378ZM954.026 747.457L942.943 742.856C941.381 746.62 940.413 750.646 939.914 754.823L951.829 756.246L963.744 757.669C964.027 755.303 964.523 753.469 965.109 752.058L954.026 747.457ZM951.829 756.246L941.539 762.42L941.759 762.786L952.049 756.612L962.339 750.438L962.119 750.072L951.829 756.246ZM1002.07 813.155L990.856 808.891L984.674 825.155H1002.07V813.155ZM1046.09 697.359V685.359H1037.82L1034.87 693.095L1046.09 697.359ZM1065.79 697.359L1077.01 701.623L1083.19 685.359H1065.79V697.359ZM1021.78 813.155V825.155H1030.05L1032.99 817.419L1021.78 813.155ZM1002.07 813.155L1013.29 817.419L1057.31 701.623L1046.09 697.359L1034.87 693.095L990.856 808.891L1002.07 813.155ZM1046.09 697.359V709.359H1065.79V697.359V685.359H1046.09V697.359ZM1065.79 697.359L1054.58 693.095L1010.56 808.891L1021.78 813.155L1032.99 817.419L1077.01 701.623L1065.79 697.359ZM1021.78 813.155V801.155H1002.07V813.155V825.155H1021.78V813.155ZM1069.68 799.605H1057.68V817.683L1074.34 810.664L1069.68 799.605ZM1069.68 779.83L1065.47 768.591L1057.68 771.507V779.83H1069.68ZM1108.05 765.475L1105.55 753.738L1104.68 753.924L1103.85 754.235L1108.05 765.475ZM1112.52 764.522L1115.02 776.259L1124.52 774.235V764.522H1112.52ZM1112.52 764.083H1124.52V754.97L1115.74 752.524L1112.52 764.083ZM1108.05 762.838L1103.98 774.126L1104.4 774.278L1104.83 774.397L1108.05 762.838ZM1069.68 748.995H1057.68V757.424L1065.6 760.283L1069.68 748.995ZM1069.68 729.293L1074.32 718.23L1057.68 711.234V729.293H1069.68ZM1133.47 756.1H1145.47V748.126L1138.12 745.037L1133.47 756.1ZM1133.47 772.726L1138.13 783.784L1145.47 780.691V772.726H1133.47ZM1069.68 799.605H1081.68V779.83H1069.68H1057.68V799.605H1069.68ZM1069.68 779.83L1073.88 791.07L1112.26 776.714L1108.05 765.475L1103.85 754.235L1065.47 768.591L1069.68 779.83ZM1108.05 765.475L1110.56 777.211L1115.02 776.259L1112.52 764.522L1110.02 752.786L1105.55 753.738L1108.05 765.475ZM1112.52 764.522H1124.52V764.083H1112.52H1100.52V764.522H1112.52ZM1112.52 764.083L1115.74 752.524L1111.28 751.278L1108.05 762.838L1104.83 774.397L1109.3 775.643L1112.52 764.083ZM1108.05 762.838L1112.13 751.55L1073.75 737.707L1069.68 748.995L1065.6 760.283L1103.98 774.126L1108.05 762.838ZM1069.68 748.995H1081.68V729.293H1069.68H1057.68V748.995H1069.68ZM1069.68 729.293L1065.03 740.356L1128.82 767.163L1133.47 756.1L1138.12 745.037L1074.32 718.23L1069.68 729.293ZM1133.47 756.1H1121.47V772.726H1133.47H1145.47V756.1H1133.47ZM1133.47 772.726L1128.81 761.667L1065.02 788.547L1069.68 799.605L1074.34 810.664L1138.13 783.784L1133.47 772.726Z" fill="#3B1F91" mask="url(#path-6-outside-2_3_37)"/>
</g>
<defs>
<filter id="filter0_d_3_37" x="110" y="445" width="1280" height="619" filterUnits="userSpaceOnUse" color-interpolation-filters="sRGB">
<feFlood flood-opacity="0" result="BackgroundImageFix"/>
<feColorMatrix in="SourceAlpha" type="matrix" values="0 0 0 0 0 0 0 0 0 0 0 0 0 0 0 0 0 0 127 0" result="hardAlpha"/>
<feOffset dy="4"/>
<feGaussianBlur stdDeviation="10"/>
<feComposite in2="hardAlpha" operator="out"/>
<feColorMatrix type="matrix" values="0 0 0 0 0 0 0 0 0 0 0 0 0 0 0 0 0 0 0.25 0"/>
<feBlend mode="normal" in2="BackgroundImageFix" result="effect1_dropShadow_3_37"/>
<feBlend mode="normal" in="SourceGraphic" in2="effect1_dropShadow_3_37" result="shape"/>
</filter>
<filter id="filter1_d_3_37" x="180.4" y="392" width="665.786" height="718" filterUnits="userSpaceOnUse" color-interpolation-filters="sRGB">
<feFlood flood-opacity="0" result="BackgroundImageFix"/>
<feColorMatrix in="SourceAlpha" type="matrix" values="0 0 0 0 0 0 0 0 0 0 0 0 0 0 0 0 0 0 127 0" result="hardAlpha"/>
<feOffset dy="5"/>
<feGaussianBlur stdDeviation="60"/>
<feComposite in2="hardAlpha" operator="out"/>
<feColorMatrix type="matrix" values="0 0 0 0 0 0 0 0 0 0 0 0 0 0 0 0 0 0 0.25 0"/>
<feBlend mode="normal" in2="BackgroundImageFix" result="effect1_dropShadow_3_37"/>
<feBlend mode="normal" in="SourceGraphic" in2="effect1_dropShadow_3_37" result="shape"/>
</filter>
<filter id="filter2_d_3_37" x="574.907" y="562.742" width="690.562" height="387.413" filterUnits="userSpaceOnUse" color-interpolation-filters="sRGB">
<feFlood flood-opacity="0" result="BackgroundImageFix"/>
<feColorMatrix in="SourceAlpha" type="matrix" values="0 0 0 0 0 0 0 0 0 0 0 0 0 0 0 0 0 0 127 0" result="hardAlpha"/>
<feOffset dy="5"/>
<feGaussianBlur stdDeviation="60"/>
<feComposite in2="hardAlpha" operator="out"/>
<feColorMatrix type="matrix" values="0 0 0 0 0 0 0 0 0 0 0 0 0 0 0 0 0 0 0.25 0"/>
<feBlend mode="normal" in2="BackgroundImageFix" result="effect1_dropShadow_3_37"/>
<feBlend mode="normal" in="SourceGraphic" in2="effect1_dropShadow_3_37" result="shape"/>
</filter>
</defs>
</svg>
