<svg width="1500" height="1500" viewBox="0 0 1500 1500" fill="none" xmlns="http://www.w3.org/2000/svg">
<g filter="url(#filter0_d_8_2)">
<rect x="140" y="471" width="1220" height="559" rx="90" stroke="black" stroke-width="40" shape-rendering="crispEdges"/>
</g>
<path d="M750 230C887.913 230 1020.18 284.786 1117.7 382.305C1215.21 479.824 1270 612.087 1270 750C1270 887.913 1215.21 1020.18 1117.7 1117.7C1020.18 1215.21 887.913 1270 750 1270C612.087 1270 479.824 1215.21 382.305 1117.7C284.786 1020.18 230 887.913 230 750C230 612.087 284.786 479.824 382.305 382.305C479.824 284.786 612.087 230 750 230Z" stroke="black" stroke-width="40"/>
<g filter="url(#filter1_d_8_2)">
<path d="M581.2 556.4C563.6 556.4 548 560.6 534.4 569C520.8 577 509.4 589 500.2 605C491 621 484 640.8 479.2 664.4C474.8 688 472.6 715.2 472.6 746C472.6 779.2 475 807.8 479.8 831.8C484.6 855.8 491.8 875.6 501.4 891.2C511.4 906.4 523.2 917.8 536.8 925.4C550.8 932.6 566.8 936.2 584.8 936.2C605.6 936.2 624.2 931 640.6 920.6C657.4 909.8 671.6 895 683.2 876.2C695.2 857 703.8 834.6 709 809L734.2 819.2C728.2 848 718 873.4 703.6 895.4C689.2 917.4 670.6 934.6 647.8 947C625 959 597.8 965 566.2 965C535 965 506.2 959.8 479.8 949.4C453.8 939 431.2 924.2 412 905C392.8 885.4 377.8 862.2 367 835.4C356.6 808.6 351.4 778.8 351.4 746C351.4 713.2 356.8 683.6 367.6 657.2C378.4 630.4 393.4 607.4 412.6 588.2C431.8 568.6 454 553.6 479.2 543.2C504.8 532.4 532.2 527 561.4 527C590.2 527 614.6 531.4 634.6 540.2C654.6 548.6 670.8 560.2 683.2 575C695.6 589.8 704.4 606.4 709.6 624.8L686.2 612.2L697 533H724V660.8H698.2C692.6 640.4 684.6 622.4 674.2 606.8C664.2 591.2 651.4 579 635.8 570.2C620.6 561 602.4 556.4 581.2 556.4Z" fill="black"/>
</g>
<g filter="url(#filter2_d_8_2)">
<path d="M775.407 805.538C767.595 805.538 760.881 803.829 755.266 800.411C749.65 796.993 745.354 792.257 742.375 786.202C739.396 780.099 737.907 773.092 737.907 765.182V763.644C737.907 755.782 739.396 748.824 742.375 742.77C745.354 736.666 749.626 731.905 755.192 728.487C760.808 725.021 767.497 723.287 775.261 723.287C783.122 723.287 789.836 725.021 795.402 728.487C800.969 731.905 805.241 736.642 808.22 742.696C811.198 748.751 812.688 755.733 812.688 763.644V765.182C812.688 773.092 811.198 780.099 808.22 786.202C805.241 792.257 800.969 796.993 795.402 800.411C789.836 803.829 783.171 805.538 775.407 805.538ZM775.407 789.132C779.118 789.132 782.146 788.131 784.489 786.129C786.833 784.127 788.566 781.344 789.689 777.779C790.812 774.166 791.374 769.967 791.374 765.182V763.644C791.374 758.956 790.812 754.83 789.689 751.266C788.566 747.652 786.809 744.845 784.416 742.843C782.072 740.792 779.021 739.767 775.261 739.767C771.599 739.767 768.571 740.792 766.179 742.843C763.786 744.845 762.028 747.652 760.905 751.266C759.831 754.83 759.294 758.956 759.294 763.644V765.182C759.294 769.967 759.831 774.166 760.905 777.779C762.028 781.393 763.786 784.2 766.179 786.202C768.571 788.155 771.647 789.132 775.407 789.132ZM853.63 805.538C847.331 805.538 841.911 803.927 837.37 800.704C832.878 797.433 829.436 792.892 827.043 787.081C824.65 781.222 823.454 774.386 823.454 766.573V765.035C823.454 756.686 824.65 749.386 827.043 743.136C829.484 736.886 832.951 732.027 837.443 728.561C841.936 725.045 847.307 723.287 853.557 723.287C857.902 723.287 861.711 724.166 864.982 725.924C868.254 727.633 871.086 730.074 873.479 733.248V704.83L862.053 702.633V689.742H873.479H894.865V788.985L905.119 791.183V804H876.335L874.724 794.332C872.233 797.994 869.255 800.777 865.788 802.682C862.37 804.586 858.317 805.538 853.63 805.538ZM860.002 788.912C862.98 788.912 865.593 788.277 867.839 787.008C870.085 785.738 871.965 783.907 873.479 781.515V747.896C872.014 745.357 870.158 743.404 867.912 742.037C865.666 740.621 863.078 739.913 860.148 739.913C856.584 739.913 853.654 740.987 851.359 743.136C849.113 745.235 847.453 748.165 846.379 751.925C845.354 755.685 844.841 760.055 844.841 765.035V766.573C844.841 773.507 846.013 778.976 848.356 782.979C850.7 786.935 854.582 788.912 860.002 788.912ZM911.271 804V791.183L921.599 788.985V739.84L910.173 737.643V724.752H942.985V788.985L953.239 791.183V804H911.271ZM920.866 707.979V689.742H942.985V707.979H920.866ZM998.356 805.538C990.788 805.538 984.172 803.878 978.508 800.558C972.844 797.188 968.449 792.574 965.324 786.715C962.248 780.855 960.71 774.166 960.71 766.646V763.717C960.71 755.855 962.175 748.897 965.104 742.843C968.034 736.739 972.16 731.954 977.482 728.487C982.854 725.021 989.177 723.287 996.452 723.287C1003.63 723.287 1009.66 724.703 1014.54 727.535C1019.43 730.367 1023.14 734.444 1025.68 739.767C1028.21 745.089 1029.48 751.534 1029.48 759.103V770.748H982.902L982.756 771.188C983.049 774.654 983.903 777.755 985.319 780.489C986.784 783.175 988.835 785.299 991.472 786.861C994.108 788.375 997.307 789.132 1001.07 789.132C1004.97 789.132 1008.61 788.644 1011.98 787.667C1015.4 786.642 1018.72 785.152 1021.94 783.199L1027.73 796.383C1024.46 799.02 1020.33 801.217 1015.35 802.975C1010.42 804.684 1004.75 805.538 998.356 805.538ZM983.049 756.612H1009.49V754.708C1009.49 751.485 1009.05 748.727 1008.17 746.432C1007.34 744.088 1005.97 742.281 1004.07 741.012C1002.21 739.742 999.797 739.107 996.818 739.107C993.986 739.107 991.594 739.864 989.641 741.378C987.688 742.843 986.149 744.869 985.026 747.457C983.952 750.045 983.22 752.975 982.829 756.246L983.049 756.612ZM1033.07 813.155L1077.09 697.359H1096.79L1052.78 813.155H1033.07ZM1100.68 799.605V779.83L1139.05 765.475L1143.52 764.522V764.083L1139.05 762.838L1100.68 748.995V729.293L1164.47 756.1V772.726L1100.68 799.605Z" fill="black"/>
</g>
<defs>
<filter id="filter0_d_8_2" x="100" y="435" width="1300" height="639" filterUnits="userSpaceOnUse" color-interpolation-filters="sRGB">
<feFlood flood-opacity="0" result="BackgroundImageFix"/>
<feColorMatrix in="SourceAlpha" type="matrix" values="0 0 0 0 0 0 0 0 0 0 0 0 0 0 0 0 0 0 127 0" result="hardAlpha"/>
<feOffset dy="4"/>
<feGaussianBlur stdDeviation="10"/>
<feComposite in2="hardAlpha" operator="out"/>
<feColorMatrix type="matrix" values="0 0 0 0 0 0 0 0 0 0 0 0 0 0 0 0 0 0 0.25 0"/>
<feBlend mode="normal" in2="BackgroundImageFix" result="effect1_dropShadow_8_2"/>
<feBlend mode="normal" in="SourceGraphic" in2="effect1_dropShadow_8_2" result="shape"/>
</filter>
<filter id="filter1_d_8_2" x="231.4" y="412" width="622.8" height="678" filterUnits="userSpaceOnUse" color-interpolation-filters="sRGB">
<feFlood flood-opacity="0" result="BackgroundImageFix"/>
<feColorMatrix in="SourceAlpha" type="matrix" values="0 0 0 0 0 0 0 0 0 0 0 0 0 0 0 0 0 0 127 0" result="hardAlpha"/>
<feOffset dy="5"/>
<feGaussianBlur stdDeviation="60"/>
<feComposite in2="hardAlpha" operator="out"/>
<feColorMatrix type="matrix" values="0 0 0 0 0 0 0 0 0 0 0 0 0 0 0 0 0 0 0.25 0"/>
<feBlend mode="normal" in2="BackgroundImageFix" result="effect1_dropShadow_8_2"/>
<feBlend mode="normal" in="SourceGraphic" in2="effect1_dropShadow_8_2" result="shape"/>
</filter>
<filter id="filter2_d_8_2" x="617.907" y="574.742" width="666.562" height="363.413" filterUnits="userSpaceOnUse" color-interpolation-filters="sRGB">
<feFlood flood-opacity="0" result="BackgroundImageFix"/>
<feColorMatrix in="SourceAlpha" type="matrix" values="0 0 0 0 0 0 0 0 0 0 0 0 0 0 0 0 0 0 127 0" result="hardAlpha"/>
<feOffset dy="5"/>
<feGaussianBlur stdDeviation="60"/>
<feComposite in2="hardAlpha" operator="out"/>
<feColorMatrix type="matrix" values="0 0 0 0 0 0 0 0 0 0 0 0 0 0 0 0 0 0 0.25 0"/>
<feBlend mode="normal" in2="BackgroundImageFix" result="effect1_dropShadow_8_2"/>
<feBlend mode="normal" in="SourceGraphic" in2="effect1_dropShadow_8_2" result="shape"/>
</filter>
</defs>
</svg>
