<svg width="1500" height="1500" viewBox="0 0 1500 1500" fill="none" xmlns="http://www.w3.org/2000/svg">
<path d="M750 245C883.934 245 1012.38 298.205 1107.09 392.911C1201.79 487.617 1255 616.066 1255 750C1255 883.934 1201.79 1012.38 1107.09 1107.09C1012.38 1201.79 883.934 1255 750 1255C616.066 1255 487.617 1201.79 392.911 1107.09C298.205 1012.38 245 883.934 245 750C245 616.066 298.205 487.617 392.911 392.911C487.617 298.205 616.066 245 750 245Z" fill="white" stroke="#4D2AB6" stroke-width="10"/>
<g filter="url(#filter0_d_3_37)">
<rect x="160" y="491" width="1180" height="519" rx="70" fill="#4D2AB6"/>
<rect x="157.5" y="488.5" width="1185" height="524" rx="72.5" stroke="white" stroke-width="5"/>
</g>
<g filter="url(#filter1_d_3_37)">
<mask id="path-4-outside-1_3_37" maskUnits="userSpaceOnUse" x="315" y="522" width="394" height="448" fill="black">
<rect fill="white" x="315" y="522" width="394" height="448"/>
<path d="M550.2 556.4C532.6 556.4 517 560.6 503.4 569C489.8 577 478.4 589 469.2 605C460 621 453 640.8 448.2 664.4C443.8 688 441.6 715.2 441.6 746C441.6 779.2 444 807.8 448.8 831.8C453.6 855.8 460.8 875.6 470.4 891.2C480.4 906.4 492.2 917.8 505.8 925.4C519.8 932.6 535.8 936.2 553.8 936.2C574.6 936.2 593.2 931 609.6 920.6C626.4 909.8 640.6 895 652.2 876.2C664.2 857 672.8 834.6 678 809L703.2 819.2C697.2 848 687 873.4 672.6 895.4C658.2 917.4 639.6 934.6 616.8 947C594 959 566.8 965 535.2 965C504 965 475.2 959.8 448.8 949.4C422.8 939 400.2 924.2 381 905C361.8 885.4 346.8 862.2 336 835.4C325.6 808.6 320.4 778.8 320.4 746C320.4 713.2 325.8 683.6 336.6 657.2C347.4 630.4 362.4 607.4 381.6 588.2C400.8 568.6 423 553.6 448.2 543.2C473.8 532.4 501.2 527 530.4 527C559.2 527 583.6 531.4 603.6 540.2C623.6 548.6 639.8 560.2 652.2 575C664.6 589.8 673.4 606.4 678.6 624.8L655.2 612.2L666 533H693V660.8H667.2C661.6 640.4 653.6 622.4 643.2 606.8C633.2 591.2 620.4 579 604.8 570.2C589.6 561 571.4 556.4 550.2 556.4Z"/>
</mask>
<path d="M550.2 556.4C532.6 556.4 517 560.6 503.4 569C489.8 577 478.4 589 469.2 605C460 621 453 640.8 448.2 664.4C443.8 688 441.6 715.2 441.6 746C441.6 779.2 444 807.8 448.8 831.8C453.6 855.8 460.8 875.6 470.4 891.2C480.4 906.4 492.2 917.8 505.8 925.4C519.8 932.6 535.8 936.2 553.8 936.2C574.6 936.2 593.2 931 609.6 920.6C626.4 909.8 640.6 895 652.2 876.2C664.2 857 672.8 834.6 678 809L703.2 819.2C697.2 848 687 873.4 672.6 895.4C658.2 917.4 639.6 934.6 616.8 947C594 959 566.8 965 535.2 965C504 965 475.2 959.8 448.8 949.4C422.8 939 400.2 924.2 381 905C361.8 885.4 346.8 862.2 336 835.4C325.6 808.6 320.4 778.8 320.4 746C320.4 713.2 325.8 683.6 336.6 657.2C347.4 630.4 362.4 607.4 381.6 588.2C400.8 568.6 423 553.6 448.2 543.2C473.8 532.4 501.2 527 530.4 527C559.2 527 583.6 531.4 603.6 540.2C623.6 548.6 639.8 560.2 652.2 575C664.6 589.8 673.4 606.4 678.6 624.8L655.2 612.2L666 533H693V660.8H667.2C661.6 640.4 653.6 622.4 643.2 606.8C633.2 591.2 620.4 579 604.8 570.2C589.6 561 571.4 556.4 550.2 556.4Z" fill="white"/>
<path d="M503.4 569L505.935 573.31L505.982 573.282L506.027 573.254L503.4 569ZM448.2 664.4L443.3 663.403L443.292 663.443L443.285 663.484L448.2 664.4ZM448.8 831.8L443.897 832.781L448.8 831.8ZM470.4 891.2L466.142 893.82L466.181 893.885L466.223 893.948L470.4 891.2ZM505.8 925.4L503.361 929.765L503.436 929.807L503.513 929.846L505.8 925.4ZM609.6 920.6L612.278 924.823L612.291 924.814L612.304 924.806L609.6 920.6ZM652.2 876.2L647.96 873.55L647.952 873.562L647.945 873.574L652.2 876.2ZM678 809L679.876 804.365L674.298 802.107L673.1 808.005L678 809ZM703.2 819.2L708.095 820.22L708.947 816.132L705.076 814.565L703.2 819.2ZM672.6 895.4L676.784 898.138V898.138L672.6 895.4ZM616.8 947L619.129 951.425L619.159 951.409L619.189 951.392L616.8 947ZM448.8 949.4L446.943 954.042L446.955 954.047L446.967 954.052L448.8 949.4ZM381 905L377.428 908.499L377.446 908.517L377.464 908.536L381 905ZM336 835.4L331.339 837.209L331.35 837.239L331.362 837.269L336 835.4ZM336.6 657.2L341.228 659.093L341.233 659.081L341.238 659.069L336.6 657.2ZM381.6 588.2L385.136 591.736L385.154 591.717L385.172 591.699L381.6 588.2ZM448.2 543.2L450.107 547.822L450.126 547.814L450.144 547.807L448.2 543.2ZM603.6 540.2L601.586 544.777L601.625 544.794L601.664 544.81L603.6 540.2ZM652.2 575L648.367 578.211V578.211L652.2 575ZM678.6 624.8L676.23 629.202L686.621 634.798L683.412 623.44L678.6 624.8ZM655.2 612.2L650.246 611.524L649.777 614.959L652.829 616.602L655.2 612.2ZM666 533V528H661.636L661.046 532.324L666 533ZM693 533H698V528H693V533ZM693 660.8V665.8H698V660.8H693ZM667.2 660.8L662.378 662.124L663.388 665.8H667.2V660.8ZM643.2 606.8L638.991 609.498L639.015 609.536L639.04 609.573L643.2 606.8ZM604.8 570.2L602.211 574.477L602.277 574.517L602.343 574.555L604.8 570.2ZM550.2 556.4V551.4C531.769 551.4 515.241 555.81 500.773 564.746L503.4 569L506.027 573.254C518.759 565.39 533.431 561.4 550.2 561.4V556.4ZM503.4 569L500.865 564.69C486.4 573.199 474.424 585.885 464.865 602.508L469.2 605L473.535 607.492C482.376 592.115 493.2 580.801 505.935 573.31L503.4 569ZM469.2 605L464.865 602.508C455.331 619.09 448.176 639.429 443.3 663.403L448.2 664.4L453.1 665.397C457.824 642.171 464.669 622.91 473.535 607.492L469.2 605ZM448.2 664.4L443.285 663.484C438.815 687.457 436.6 714.974 436.6 746H441.6H446.6C446.6 715.426 448.785 688.543 453.115 665.316L448.2 664.4ZM441.6 746H436.6C436.6 779.421 439.014 808.367 443.897 832.781L448.8 831.8L453.703 830.819C448.986 807.233 446.6 778.979 446.6 746H441.6ZM448.8 831.8L443.897 832.781C448.777 857.178 456.147 877.578 466.142 893.82L470.4 891.2L474.658 888.579C465.453 873.622 458.423 854.422 453.703 830.819L448.8 831.8ZM470.4 891.2L466.223 893.948C476.59 909.706 488.951 921.712 503.361 929.765L505.8 925.4L508.239 921.035C495.449 913.888 484.21 903.094 474.577 888.452L470.4 891.2ZM505.8 925.4L503.513 929.846C518.316 937.459 535.119 941.2 553.8 941.2V936.2V931.2C536.481 931.2 521.284 927.741 508.087 920.954L505.8 925.4ZM553.8 936.2V941.2C575.478 941.2 595.02 935.767 612.278 924.823L609.6 920.6L606.922 916.377C591.381 926.233 573.722 931.2 553.8 931.2V936.2ZM609.6 920.6L612.304 924.806C629.797 913.56 644.505 898.193 656.455 878.826L652.2 876.2L647.945 873.574C636.695 891.807 623.003 906.04 606.896 916.394L609.6 920.6ZM652.2 876.2L656.44 878.85C668.802 859.071 677.599 836.093 682.9 809.995L678 809L673.1 808.005C668.001 833.107 659.598 854.929 647.96 873.55L652.2 876.2ZM678 809L676.124 813.635L701.324 823.835L703.2 819.2L705.076 814.565L679.876 804.365L678 809ZM703.2 819.2L698.305 818.18C692.418 846.44 682.436 871.244 668.417 892.662L672.6 895.4L676.784 898.138C691.564 875.556 701.982 849.56 708.095 820.22L703.2 819.2ZM672.6 895.4L668.417 892.662C654.463 913.98 636.476 930.608 614.411 942.608L616.8 947L619.189 951.392C642.724 938.592 661.937 920.82 676.784 898.138L672.6 895.4ZM616.8 947L614.471 942.575C592.534 954.121 566.17 960 535.2 960V965V970C567.43 970 595.466 963.879 619.129 951.425L616.8 947ZM535.2 965V960C504.565 960 476.393 954.896 450.633 944.748L448.8 949.4L446.967 954.052C474.007 964.704 503.435 970 535.2 970V965ZM448.8 949.4L450.657 944.758C425.266 934.601 403.242 920.171 384.536 901.464L381 905L377.464 908.536C397.158 928.229 420.334 943.399 446.943 954.042L448.8 949.4ZM381 905L384.572 901.501C365.855 882.394 351.206 859.756 340.638 833.531L336 835.4L331.362 837.269C342.394 864.644 357.745 888.406 377.428 908.499L381 905ZM336 835.4L340.661 833.591C330.514 807.443 325.4 778.268 325.4 746H320.4H315.4C315.4 779.332 320.686 809.757 331.339 837.209L336 835.4ZM320.4 746H325.4C325.4 713.753 330.708 684.809 341.228 659.093L336.6 657.2L331.972 655.307C320.892 682.391 315.4 712.647 315.4 746H320.4ZM336.6 657.2L341.238 659.069C351.802 632.852 366.441 610.43 385.136 591.736L381.6 588.2L378.064 584.664C358.359 604.37 342.998 627.948 331.962 655.331L336.6 657.2ZM381.6 588.2L385.172 591.699C403.902 572.579 425.537 557.962 450.107 547.822L448.2 543.2L446.293 538.578C420.463 549.238 397.698 564.621 378.028 584.701L381.6 588.2ZM448.2 543.2L450.144 547.807C475.097 537.279 501.833 532 530.4 532V527V522C500.567 522 472.503 527.521 446.257 538.593L448.2 543.2ZM530.4 527V532C558.717 532 582.388 536.329 601.586 544.777L603.6 540.2L605.614 535.623C584.812 526.47 559.683 522 530.4 522V527ZM603.6 540.2L601.664 544.81C621.021 552.94 636.539 564.094 648.367 578.211L652.2 575L656.033 571.789C643.061 556.306 626.179 544.26 605.536 535.59L603.6 540.2ZM652.2 575L648.367 578.211C660.319 592.475 668.782 608.446 673.788 626.16L678.6 624.8L683.412 623.44C678.018 604.354 668.881 587.124 656.033 571.789L652.2 575ZM678.6 624.8L680.971 620.398L657.57 607.798L655.2 612.2L652.829 616.602L676.23 629.202L678.6 624.8ZM655.2 612.2L660.154 612.876L670.954 533.676L666 533L661.046 532.324L650.246 611.524L655.2 612.2ZM666 533V538H693V533V528H666V533ZM693 533H688V660.8H693H698V533H693ZM693 660.8V655.8H667.2V660.8V665.8H693V660.8ZM667.2 660.8L672.022 659.476C666.298 638.626 658.092 620.124 647.36 604.026L643.2 606.8L639.04 609.573C649.108 624.676 656.902 642.174 662.378 662.124L667.2 660.8ZM643.2 606.8L647.409 604.102C636.985 587.839 623.592 575.06 607.257 565.845L604.8 570.2L602.343 574.555C617.208 582.94 629.415 594.561 638.991 609.498L643.2 606.8ZM604.8 570.2L607.389 565.923C591.269 556.166 572.135 551.4 550.2 551.4V556.4V561.4C570.665 561.4 587.931 565.834 602.211 574.477L604.8 570.2Z" fill="#3B1F91" mask="url(#path-4-outside-1_3_37)"/>
</g>
<g filter="url(#filter2_d_3_37)">
<mask id="path-6-outside-2_3_37" maskUnits="userSpaceOnUse" x="700" y="683" width="440" height="137" fill="black">
<rect fill="white" x="700" y="683" width="440" height="137"/>
<path d="M744.407 805.538C736.595 805.538 729.881 803.829 724.266 800.411C718.65 796.993 714.354 792.257 711.375 786.202C708.396 780.099 706.907 773.092 706.907 765.182V763.644C706.907 755.782 708.396 748.824 711.375 742.77C714.354 736.666 718.626 731.905 724.192 728.487C729.808 725.021 736.497 723.287 744.261 723.287C752.122 723.287 758.836 725.021 764.402 728.487C769.969 731.905 774.241 736.642 777.22 742.696C780.198 748.751 781.688 755.733 781.688 763.644V765.182C781.688 773.092 780.198 780.099 777.22 786.202C774.241 792.257 769.969 796.993 764.402 800.411C758.836 803.829 752.171 805.538 744.407 805.538ZM744.407 789.132C748.118 789.132 751.146 788.131 753.489 786.129C755.833 784.127 757.566 781.344 758.689 777.779C759.812 774.166 760.374 769.967 760.374 765.182V763.644C760.374 758.956 759.812 754.83 758.689 751.266C757.566 747.652 755.809 744.845 753.416 742.843C751.072 740.792 748.021 739.767 744.261 739.767C740.599 739.767 737.571 740.792 735.179 742.843C732.786 744.845 731.028 747.652 729.905 751.266C728.831 754.83 728.294 758.956 728.294 763.644V765.182C728.294 769.967 728.831 774.166 729.905 777.779C731.028 781.393 732.786 784.2 735.179 786.202C737.571 788.155 740.647 789.132 744.407 789.132ZM822.63 805.538C816.331 805.538 810.911 803.927 806.37 800.704C801.878 797.433 798.436 792.892 796.043 787.081C793.65 781.222 792.454 774.386 792.454 766.573V765.035C792.454 756.686 793.65 749.386 796.043 743.136C798.484 736.886 801.951 732.027 806.443 728.561C810.936 725.045 816.307 723.287 822.557 723.287C826.902 723.287 830.711 724.166 833.982 725.924C837.254 727.633 840.086 730.074 842.479 733.248V704.83L831.053 702.633V689.742H842.479H863.865V788.985L874.119 791.183V804H845.335L843.724 794.332C841.233 797.994 838.255 800.777 834.788 802.682C831.37 804.586 827.317 805.538 822.63 805.538ZM829.002 788.912C831.98 788.912 834.593 788.277 836.839 787.008C839.085 785.738 840.965 783.907 842.479 781.515V747.896C841.014 745.357 839.158 743.404 836.912 742.037C834.666 740.621 832.078 739.913 829.148 739.913C825.584 739.913 822.654 740.987 820.359 743.136C818.113 745.235 816.453 748.165 815.379 751.925C814.354 755.685 813.841 760.055 813.841 765.035V766.573C813.841 773.507 815.013 778.976 817.356 782.979C819.7 786.935 823.582 788.912 829.002 788.912ZM880.271 804V791.183L890.599 788.985V739.84L879.173 737.643V724.752H911.985V788.985L922.239 791.183V804H880.271ZM889.866 707.979V689.742H911.985V707.979H889.866ZM967.356 805.538C959.788 805.538 953.172 803.878 947.508 800.558C941.844 797.188 937.449 792.574 934.324 786.715C931.248 780.855 929.71 774.166 929.71 766.646V763.717C929.71 755.855 931.175 748.897 934.104 742.843C937.034 736.739 941.16 731.954 946.482 728.487C951.854 725.021 958.177 723.287 965.452 723.287C972.63 723.287 978.66 724.703 983.543 727.535C988.426 730.367 992.137 734.444 994.676 739.767C997.215 745.089 998.484 751.534 998.484 759.103V770.748H951.902L951.756 771.188C952.049 774.654 952.903 777.755 954.319 780.489C955.784 783.175 957.835 785.299 960.472 786.861C963.108 788.375 966.307 789.132 970.066 789.132C973.973 789.132 977.61 788.644 980.979 787.667C984.397 786.642 987.718 785.152 990.94 783.199L996.727 796.383C993.455 799.02 989.329 801.217 984.349 802.975C979.417 804.684 973.753 805.538 967.356 805.538ZM952.049 756.612H978.489V754.708C978.489 751.485 978.05 748.727 977.171 746.432C976.341 744.088 974.974 742.281 973.069 741.012C971.214 739.742 968.797 739.107 965.818 739.107C962.986 739.107 960.594 739.864 958.641 741.378C956.688 742.843 955.149 744.869 954.026 747.457C952.952 750.045 952.22 752.975 951.829 756.246L952.049 756.612ZM1002.07 813.155L1046.09 697.359H1065.79L1021.78 813.155H1002.07ZM1069.68 799.605V779.83L1108.05 765.475L1112.52 764.522V764.083L1108.05 762.838L1069.68 748.995V729.293L1133.47 756.1V772.726L1069.68 799.605Z"/>
</mask>
<path d="M744.407 805.538C736.595 805.538 729.881 803.829 724.266 800.411C718.65 796.993 714.354 792.257 711.375 786.202C708.396 780.099 706.907 773.092 706.907 765.182V763.644C706.907 755.782 708.396 748.824 711.375 742.77C714.354 736.666 718.626 731.905 724.192 728.487C729.808 725.021 736.497 723.287 744.261 723.287C752.122 723.287 758.836 725.021 764.402 728.487C769.969 731.905 774.241 736.642 777.22 742.696C780.198 748.751 781.688 755.733 781.688 763.644V765.182C781.688 773.092 780.198 780.099 777.22 786.202C774.241 792.257 769.969 796.993 764.402 800.411C758.836 803.829 752.171 805.538 744.407 805.538ZM744.407 789.132C748.118 789.132 751.146 788.131 753.489 786.129C755.833 784.127 757.566 781.344 758.689 777.779C759.812 774.166 760.374 769.967 760.374 765.182V763.644C760.374 758.956 759.812 754.83 758.689 751.266C757.566 747.652 755.809 744.845 753.416 742.843C751.072 740.792 748.021 739.767 744.261 739.767C740.599 739.767 737.571 740.792 735.179 742.843C732.786 744.845 731.028 747.652 729.905 751.266C728.831 754.83 728.294 758.956 728.294 763.644V765.182C728.294 769.967 728.831 774.166 729.905 777.779C731.028 781.393 732.786 784.2 735.179 786.202C737.571 788.155 740.647 789.132 744.407 789.132ZM822.63 805.538C816.331 805.538 810.911 803.927 806.37 800.704C801.878 797.433 798.436 792.892 796.043 787.081C793.65 781.222 792.454 774.386 792.454 766.573V765.035C792.454 756.686 793.65 749.386 796.043 743.136C798.484 736.886 801.951 732.027 806.443 728.561C810.936 725.045 816.307 723.287 822.557 723.287C826.902 723.287 830.711 724.166 833.982 725.924C837.254 727.633 840.086 730.074 842.479 733.248V704.83L831.053 702.633V689.742H842.479H863.865V788.985L874.119 791.183V804H845.335L843.724 794.332C841.233 797.994 838.255 800.777 834.788 802.682C831.37 804.586 827.317 805.538 822.63 805.538ZM829.002 788.912C831.98 788.912 834.593 788.277 836.839 787.008C839.085 785.738 840.965 783.907 842.479 781.515V747.896C841.014 745.357 839.158 743.404 836.912 742.037C834.666 740.621 832.078 739.913 829.148 739.913C825.584 739.913 822.654 740.987 820.359 743.136C818.113 745.235 816.453 748.165 815.379 751.925C814.354 755.685 813.841 760.055 813.841 765.035V766.573C813.841 773.507 815.013 778.976 817.356 782.979C819.7 786.935 823.582 788.912 829.002 788.912ZM880.271 804V791.183L890.599 788.985V739.84L879.173 737.643V724.752H911.985V788.985L922.239 791.183V804H880.271ZM889.866 707.979V689.742H911.985V707.979H889.866ZM967.356 805.538C959.788 805.538 953.172 803.878 947.508 800.558C941.844 797.188 937.449 792.574 934.324 786.715C931.248 780.855 929.71 774.166 929.71 766.646V763.717C929.71 755.855 931.175 748.897 934.104 742.843C937.034 736.739 941.16 731.954 946.482 728.487C951.854 725.021 958.177 723.287 965.452 723.287C972.63 723.287 978.66 724.703 983.543 727.535C988.426 730.367 992.137 734.444 994.676 739.767C997.215 745.089 998.484 751.534 998.484 759.103V770.748H951.902L951.756 771.188C952.049 774.654 952.903 777.755 954.319 780.489C955.784 783.175 957.835 785.299 960.472 786.861C963.108 788.375 966.307 789.132 970.066 789.132C973.973 789.132 977.61 788.644 980.979 787.667C984.397 786.642 987.718 785.152 990.94 783.199L996.727 796.383C993.455 799.02 989.329 801.217 984.349 802.975C979.417 804.684 973.753 805.538 967.356 805.538ZM952.049 756.612H978.489V754.708C978.489 751.485 978.05 748.727 977.171 746.432C976.341 744.088 974.974 742.281 973.069 741.012C971.214 739.742 968.797 739.107 965.818 739.107C962.986 739.107 960.594 739.864 958.641 741.378C956.688 742.843 955.149 744.869 954.026 747.457C952.952 750.045 952.22 752.975 951.829 756.246L952.049 756.612ZM1002.07 813.155L1046.09 697.359H1065.79L1021.78 813.155H1002.07ZM1069.68 799.605V779.83L1108.05 765.475L1112.52 764.522V764.083L1108.05 762.838L1069.68 748.995V729.293L1133.47 756.1V772.726L1069.68 799.605Z" fill="white"/>
<path d="M711.375 786.202L705.983 788.834L705.987 788.842L705.991 788.851L711.375 786.202ZM711.375 742.77L716.759 745.418L716.763 745.409L716.767 745.401L711.375 742.77ZM724.192 728.487L727.332 733.6L727.338 733.597L727.344 733.593L724.192 728.487ZM764.402 728.487L761.23 733.58L761.247 733.59L761.263 733.6L764.402 728.487ZM777.22 786.202L782.604 788.851L782.608 788.842L782.612 788.834L777.22 786.202ZM764.402 800.411L761.263 795.298L764.402 800.411ZM758.689 777.779L764.412 779.582L764.416 779.571L764.419 779.56L758.689 777.779ZM758.689 751.266L752.96 753.046L752.963 753.058L752.967 753.069L758.689 751.266ZM753.416 742.843L749.465 747.358L749.515 747.402L749.566 747.444L753.416 742.843ZM735.179 742.843L739.029 747.444L739.056 747.422L739.083 747.398L735.179 742.843ZM729.905 751.266L724.176 749.485L724.168 749.51L724.16 749.534L729.905 751.266ZM729.905 777.779L724.154 779.489L724.165 779.525L724.176 779.56L729.905 777.779ZM735.179 786.202L731.328 790.804L731.356 790.827L731.384 790.85L735.179 786.202ZM744.407 805.538V799.538C737.486 799.538 731.897 798.032 727.385 795.286L724.266 800.411L721.146 805.536C727.865 809.626 735.703 811.538 744.407 811.538V805.538ZM724.266 800.411L727.385 795.286C722.772 792.478 719.248 788.613 716.759 783.554L711.375 786.202L705.991 788.851C709.459 795.901 714.529 801.509 721.146 805.536L724.266 800.411ZM711.375 786.202L716.767 783.571C714.249 778.412 712.907 772.33 712.907 765.182H706.907H700.907C700.907 773.854 702.543 781.786 705.983 788.834L711.375 786.202ZM706.907 765.182H712.907V763.644H706.907H700.907V765.182H706.907ZM706.907 763.644H712.907C712.907 756.549 714.248 750.523 716.759 745.418L711.375 742.77L705.991 740.121C702.545 747.125 700.907 755.015 700.907 763.644H706.907ZM711.375 742.77L716.767 745.401C719.267 740.279 722.777 736.397 727.332 733.6L724.192 728.487L721.053 723.374C714.475 727.413 709.44 733.053 705.983 740.138L711.375 742.77ZM724.192 728.487L727.344 733.593C731.856 730.807 737.411 729.287 744.261 729.287V723.287V717.287C735.583 717.287 727.759 719.234 721.04 723.382L724.192 728.487ZM744.261 723.287V729.287C751.226 729.287 756.79 730.815 761.23 733.58L764.402 728.487L767.574 723.394C760.882 719.226 753.019 717.287 744.261 717.287V723.287ZM764.402 728.487L761.263 733.6C765.83 736.405 769.34 740.272 771.836 745.345L777.22 742.696L782.604 740.048C779.142 733.011 774.107 727.406 767.542 723.374L764.402 728.487ZM777.22 742.696L771.836 745.345C774.345 750.445 775.688 756.494 775.688 763.644H781.688H787.688C787.688 754.973 786.052 747.057 782.604 740.048L777.22 742.696ZM781.688 763.644H775.688V765.182H781.688H787.688V763.644H781.688ZM781.688 765.182H775.688C775.688 772.33 774.345 778.412 771.828 783.571L777.22 786.202L782.612 788.834C786.051 781.786 787.688 773.854 787.688 765.182H781.688ZM777.22 786.202L771.836 783.554C769.34 788.627 765.83 792.493 761.263 795.298L764.402 800.411L767.542 805.524C774.107 801.493 779.142 795.887 782.604 788.851L777.22 786.202ZM764.402 800.411L761.263 795.298C756.806 798.035 751.274 799.538 744.407 799.538V805.538V811.538C753.068 811.538 760.866 809.623 767.542 805.524L764.402 800.411ZM744.407 789.132V795.132C749.243 795.132 753.745 793.801 757.386 790.691L753.489 786.129L749.592 781.567C748.546 782.46 746.994 783.132 744.407 783.132V789.132ZM753.489 786.129L757.386 790.691C760.751 787.817 763.023 783.99 764.412 779.582L758.689 777.779L752.967 775.976C752.11 778.697 750.915 780.437 749.592 781.567L753.489 786.129ZM758.689 777.779L764.419 779.56C765.761 775.241 766.374 770.419 766.374 765.182H760.374H754.374C754.374 769.515 753.864 773.091 752.96 775.998L758.689 777.779ZM760.374 765.182H766.374V763.644H760.374H754.374V765.182H760.374ZM760.374 763.644H766.374C766.374 758.493 765.759 753.737 764.412 749.463L758.689 751.266L752.967 753.069C753.866 755.923 754.374 759.419 754.374 763.644H760.374ZM758.689 751.266L764.419 749.485C763.027 745.007 760.716 741.127 757.266 738.241L753.416 742.843L749.566 747.444C750.901 748.562 752.106 750.298 752.96 753.046L758.689 751.266ZM753.416 742.843L757.367 738.327C753.713 735.13 749.158 733.767 744.261 733.767V739.767V745.767C746.883 745.767 748.431 746.454 749.465 747.358L753.416 742.843ZM744.261 739.767V733.767C739.412 733.767 734.927 735.156 731.274 738.287L735.179 742.843L739.083 747.398C740.216 746.428 741.786 745.767 744.261 745.767V739.767ZM735.179 742.843L731.328 738.241C727.879 741.127 725.568 745.007 724.176 749.485L729.905 751.266L735.635 753.046C736.489 750.298 737.693 748.562 739.029 747.444L735.179 742.843ZM729.905 751.266L724.16 749.534C722.88 753.784 722.294 758.514 722.294 763.644H728.294H734.294C734.294 759.398 734.782 755.876 735.65 752.997L729.905 751.266ZM728.294 763.644H722.294V765.182H728.294H734.294V763.644H728.294ZM728.294 765.182H722.294C722.294 770.398 722.877 775.195 724.154 779.489L729.905 777.779L735.656 776.069C734.785 773.137 734.294 769.536 734.294 765.182H728.294ZM729.905 777.779L724.176 779.56C725.568 784.038 727.879 787.917 731.328 790.804L735.179 786.202L739.029 781.601C737.693 780.483 736.489 778.747 735.635 775.998L729.905 777.779ZM735.179 786.202L731.384 790.85C735.067 793.856 739.576 795.132 744.407 795.132V789.132V783.132C741.719 783.132 740.076 782.455 738.973 781.554L735.179 786.202ZM806.37 800.704L802.838 805.554L802.868 805.576L802.898 805.597L806.37 800.704ZM796.043 787.081L790.488 789.349L790.492 789.357L790.495 789.366L796.043 787.081ZM796.043 743.136L790.454 740.953L790.447 740.972L790.44 740.991L796.043 743.136ZM806.443 728.561L810.109 733.311L810.125 733.298L810.141 733.286L806.443 728.561ZM833.982 725.924L831.143 731.209L831.173 731.226L831.204 731.242L833.982 725.924ZM842.479 733.248L837.687 736.86L848.479 751.175V733.248H842.479ZM842.479 704.83H848.479V699.874L843.612 698.938L842.479 704.83ZM831.053 702.633H825.053V707.589L829.92 708.525L831.053 702.633ZM831.053 689.742V683.742H825.053V689.742H831.053ZM863.865 689.742H869.865V683.742H863.865V689.742ZM863.865 788.985H857.865V793.836L862.608 794.852L863.865 788.985ZM874.119 791.183H880.119V786.332L875.376 785.316L874.119 791.183ZM874.119 804V810H880.119V804H874.119ZM845.335 804L839.417 804.986L840.252 810H845.335V804ZM843.724 794.332L849.642 793.346L847.181 778.578L838.762 790.958L843.724 794.332ZM834.788 802.682L831.899 797.423L831.884 797.431L831.868 797.44L834.788 802.682ZM842.479 781.515L847.549 784.722L848.479 783.253V781.515H842.479ZM842.479 747.896H848.479V746.29L847.676 744.898L842.479 747.896ZM836.912 742.037L833.712 747.113L833.752 747.138L833.792 747.162L836.912 742.037ZM820.359 743.136L824.457 747.519L824.46 747.516L820.359 743.136ZM815.379 751.925L809.61 750.276L809.6 750.311L809.59 750.346L815.379 751.925ZM817.356 782.979L812.178 786.011L812.186 786.024L812.195 786.038L817.356 782.979ZM822.63 805.538V799.538C817.406 799.538 813.239 798.221 809.843 795.811L806.37 800.704L802.898 805.597C808.584 809.632 815.257 811.538 822.63 811.538V805.538ZM806.37 800.704L809.902 795.854C806.419 793.317 803.618 789.719 801.591 784.797L796.043 787.081L790.495 789.366C793.253 796.064 797.337 801.548 802.838 805.554L806.37 800.704ZM796.043 787.081L801.598 784.813C799.559 779.821 798.454 773.785 798.454 766.573H792.454H786.454C786.454 774.987 787.741 782.623 790.488 789.349L796.043 787.081ZM792.454 766.573H798.454V765.035H792.454H786.454V766.573H792.454ZM792.454 765.035H798.454C798.454 757.244 799.572 750.7 801.646 745.281L796.043 743.136L790.44 740.991C787.729 748.072 786.454 756.127 786.454 765.035H792.454ZM796.043 743.136L801.632 745.319C803.75 739.896 806.625 735.999 810.109 733.311L806.443 728.561L802.778 723.811C797.277 728.055 793.219 733.875 790.454 740.953L796.043 743.136ZM806.443 728.561L810.141 733.286C813.475 730.676 817.511 729.287 822.557 729.287V723.287V717.287C815.102 717.287 808.396 719.414 802.746 723.836L806.443 728.561ZM822.557 723.287V729.287C826.08 729.287 828.882 729.994 831.143 731.209L833.982 725.924L836.822 720.638C832.54 718.338 827.724 717.287 822.557 717.287V723.287ZM833.982 725.924L831.204 731.242C833.627 732.507 835.789 734.341 837.687 736.86L842.479 733.248L847.27 729.636C844.383 725.807 840.881 722.758 836.761 720.606L833.982 725.924ZM842.479 733.248H848.479V704.83H842.479H836.479V733.248H842.479ZM842.479 704.83L843.612 698.938L832.186 696.741L831.053 702.633L829.92 708.525L841.345 710.722L842.479 704.83ZM831.053 702.633H837.053V689.742H831.053H825.053V702.633H831.053ZM831.053 689.742V695.742H842.479V689.742V683.742H831.053V689.742ZM842.479 689.742V695.742H863.865V689.742V683.742H842.479V689.742ZM863.865 689.742H857.865V788.985H863.865H869.865V689.742H863.865ZM863.865 788.985L862.608 794.852L872.862 797.049L874.119 791.183L875.376 785.316L865.122 783.119L863.865 788.985ZM874.119 791.183H868.119V804H874.119H880.119V791.183H874.119ZM874.119 804V798H845.335V804V810H874.119V804ZM845.335 804L851.253 803.014L849.642 793.346L843.724 794.332L837.805 795.318L839.417 804.986L845.335 804ZM843.724 794.332L838.762 790.958C836.74 793.932 834.441 796.027 831.899 797.423L834.788 802.682L837.677 807.94C842.069 805.528 845.727 802.056 848.685 797.706L843.724 794.332ZM834.788 802.682L831.868 797.44C829.504 798.757 826.497 799.538 822.63 799.538V805.538V811.538C828.137 811.538 833.236 810.415 837.708 807.923L834.788 802.682ZM829.002 788.912V794.912C832.854 794.912 836.514 794.084 839.791 792.231L836.839 787.008L833.887 781.784C832.672 782.471 831.107 782.912 829.002 782.912V788.912ZM836.839 787.008L839.791 792.231C842.981 790.429 845.559 787.868 847.549 784.722L842.479 781.515L837.408 778.307C836.371 779.946 835.189 781.048 833.887 781.784L836.839 787.008ZM842.479 781.515H848.479V747.896H842.479H836.479V781.515H842.479ZM842.479 747.896L847.676 744.898C845.767 741.589 843.233 738.861 840.032 736.912L836.912 742.037L833.792 747.162C835.083 747.948 836.261 749.126 837.281 750.895L842.479 747.896ZM836.912 742.037L840.112 736.962C836.81 734.88 833.089 733.913 829.148 733.913V739.913V745.913C831.067 745.913 832.522 746.362 833.712 747.113L836.912 742.037ZM829.148 739.913V733.913C824.281 733.913 819.816 735.425 816.259 738.756L820.359 743.136L824.46 747.516C825.492 746.549 826.887 745.913 829.148 745.913V739.913ZM820.359 743.136L816.262 738.753C813.032 741.772 810.903 745.751 809.61 750.276L815.379 751.925L821.148 753.573C822.003 750.579 823.195 748.699 824.457 747.519L820.359 743.136ZM815.379 751.925L809.59 750.346C808.392 754.74 807.841 759.661 807.841 765.035H813.841H819.841C819.841 760.448 820.315 756.629 821.167 753.504L815.379 751.925ZM813.841 765.035H807.841V766.573H813.841H819.841V765.035H813.841ZM813.841 766.573H807.841C807.841 774.083 809.094 780.741 812.178 786.011L817.356 782.979L822.535 779.948C820.932 777.21 819.841 772.93 819.841 766.573H813.841ZM817.356 782.979L812.195 786.038C815.829 792.172 821.911 794.912 829.002 794.912V788.912V782.912C825.253 782.912 823.571 781.698 822.518 779.921L817.356 782.979ZM880.271 804H874.271V810H880.271V804ZM880.271 791.183L879.023 785.314L874.271 786.325V791.183H880.271ZM890.599 788.985L891.847 794.854L896.599 793.843V788.985H890.599ZM890.599 739.84H896.599V734.884L891.732 733.948L890.599 739.84ZM879.173 737.643H873.173V742.599L878.04 743.535L879.173 737.643ZM879.173 724.752V718.752H873.173V724.752H879.173ZM911.985 724.752H917.985V718.752H911.985V724.752ZM911.985 788.985H905.985V793.836L910.728 794.852L911.985 788.985ZM922.239 791.183H928.239V786.332L923.496 785.316L922.239 791.183ZM922.239 804V810H928.239V804H922.239ZM889.866 707.979H883.866V713.979H889.866V707.979ZM889.866 689.742V683.742H883.866V689.742H889.866ZM911.985 689.742H917.985V683.742H911.985V689.742ZM911.985 707.979V713.979H917.985V707.979H911.985ZM880.271 804H886.271V791.183H880.271H874.271V804H880.271ZM880.271 791.183L881.52 797.051L891.847 794.854L890.599 788.985L889.35 783.117L879.023 785.314L880.271 791.183ZM890.599 788.985H896.599V739.84H890.599H884.599V788.985H890.599ZM890.599 739.84L891.732 733.948L880.306 731.751L879.173 737.643L878.04 743.535L889.466 745.732L890.599 739.84ZM879.173 737.643H885.173V724.752H879.173H873.173V737.643H879.173ZM879.173 724.752V730.752H911.985V724.752V718.752H879.173V724.752ZM911.985 724.752H905.985V788.985H911.985H917.985V724.752H911.985ZM911.985 788.985L910.728 794.852L920.982 797.049L922.239 791.183L923.496 785.316L913.243 783.119L911.985 788.985ZM922.239 791.183H916.239V804H922.239H928.239V791.183H922.239ZM922.239 804V798H880.271V804V810H922.239V804ZM889.866 707.979H895.866V689.742H889.866H883.866V707.979H889.866ZM889.866 689.742V695.742H911.985V689.742V683.742H889.866V689.742ZM911.985 689.742H905.985V707.979H911.985H917.985V689.742H911.985ZM911.985 707.979V701.979H889.866V707.979V713.979H911.985V707.979ZM947.508 800.558L944.44 805.714L944.457 805.724L944.473 805.734L947.508 800.558ZM934.324 786.715L929.012 789.504L929.021 789.521L929.03 789.538L934.324 786.715ZM934.104 742.843L939.505 745.456L939.51 745.448L939.514 745.439L934.104 742.843ZM946.482 728.487L943.229 723.446L943.218 723.453L943.208 723.46L946.482 728.487ZM998.484 770.748V776.748H1004.48V770.748H998.484ZM951.902 770.748V764.748H947.578L946.21 768.851L951.902 770.748ZM951.756 771.188L946.064 769.29L945.673 770.462L945.777 771.693L951.756 771.188ZM954.319 780.489L948.991 783.248L949.021 783.306L949.052 783.362L954.319 780.489ZM960.472 786.861L957.413 792.023L957.449 792.044L957.484 792.065L960.472 786.861ZM980.979 787.667L982.65 793.43L982.677 793.422L982.704 793.414L980.979 787.667ZM990.94 783.199L996.435 780.788L993.684 774.521L987.831 778.068L990.94 783.199ZM996.727 796.383L1000.49 801.054L1004.07 798.174L1002.22 793.971L996.727 796.383ZM984.349 802.975L986.313 808.644L986.329 808.638L986.346 808.633L984.349 802.975ZM952.049 756.612L946.904 759.699L948.652 762.612H952.049V756.612ZM978.489 756.612V762.612H984.489V756.612H978.489ZM977.171 746.432L971.515 748.435L971.541 748.506L971.568 748.578L977.171 746.432ZM973.069 741.012L969.681 745.964L969.711 745.984L969.741 746.004L973.069 741.012ZM958.641 741.378L962.241 746.178L962.279 746.149L962.316 746.12L958.641 741.378ZM954.026 747.457L948.522 745.068L948.503 745.112L948.485 745.157L954.026 747.457ZM951.829 756.246L945.871 755.535L945.628 757.573L946.684 759.333L951.829 756.246ZM967.356 805.538V799.538C960.689 799.538 955.153 798.084 950.542 795.381L947.508 800.558L944.473 805.734C951.191 809.671 958.887 811.538 967.356 811.538V805.538ZM947.508 800.558L950.575 795.401C945.86 792.596 942.232 788.792 939.618 783.891L934.324 786.715L929.03 789.538C932.666 796.356 937.828 801.781 944.44 805.714L947.508 800.558ZM934.324 786.715L939.637 783.926C937.07 779.038 935.71 773.328 935.71 766.646H929.71H923.71C923.71 775.004 925.426 782.673 929.012 789.504L934.324 786.715ZM929.71 766.646H935.71V763.717H929.71H923.71V766.646H929.71ZM929.71 763.717H935.71C935.71 756.609 937.031 750.569 939.505 745.456L934.104 742.843L928.704 740.229C925.318 747.226 923.71 755.102 923.71 763.717H929.71ZM934.104 742.843L939.514 745.439C942 740.258 945.417 736.342 949.757 733.515L946.482 728.487L943.208 723.46C936.904 727.566 932.068 733.22 928.695 740.246L934.104 742.843ZM946.482 728.487L949.736 733.528C954.009 730.771 959.167 729.287 965.452 729.287V723.287V717.287C957.186 717.287 949.699 719.27 943.229 723.446L946.482 728.487ZM965.452 723.287V729.287C971.855 729.287 976.781 730.549 980.533 732.725L983.543 727.535L986.553 722.345C980.539 718.857 973.405 717.287 965.452 717.287V723.287ZM983.543 727.535L980.533 732.725C984.321 734.923 987.217 738.068 989.26 742.35L994.676 739.767L1000.09 737.183C997.056 730.821 992.531 725.812 986.553 722.345L983.543 727.535ZM994.676 739.767L989.26 742.35C991.322 746.67 992.484 752.184 992.484 759.103H998.484H1004.48C1004.48 750.885 1003.11 743.507 1000.09 737.183L994.676 739.767ZM998.484 759.103H992.484V770.748H998.484H1004.48V759.103H998.484ZM998.484 770.748V764.748H951.902V770.748V776.748H998.484V770.748ZM951.902 770.748L946.21 768.851L946.064 769.29L951.756 771.188L957.448 773.085L957.594 772.645L951.902 770.748ZM951.756 771.188L945.777 771.693C946.128 775.845 947.168 779.728 948.991 783.248L954.319 780.489L959.647 777.73C958.639 775.782 957.97 773.464 957.735 770.682L951.756 771.188ZM954.319 780.489L949.052 783.362C951.035 786.997 953.849 789.911 957.413 792.023L960.472 786.861L963.53 781.7C961.821 780.686 960.534 779.352 959.587 777.616L954.319 780.489ZM960.472 786.861L957.484 792.065C961.222 794.21 965.504 795.132 970.066 795.132V789.132V783.132C967.109 783.132 964.995 782.54 963.459 781.658L960.472 786.861ZM970.066 789.132V795.132C974.475 795.132 978.68 794.58 982.65 793.43L980.979 787.667L979.309 781.904C976.54 782.707 973.471 783.132 970.066 783.132V789.132ZM980.979 787.667L982.704 793.414C986.634 792.235 990.418 790.532 994.05 788.33L990.94 783.199L987.831 778.068C985.018 779.773 982.161 781.048 979.255 781.92L980.979 787.667ZM990.94 783.199L985.446 785.611L991.232 798.794L996.727 796.383L1002.22 793.971L996.435 780.788L990.94 783.199ZM996.727 796.383L992.961 791.711C990.335 793.828 986.849 795.729 982.352 797.317L984.349 802.975L986.346 808.633C991.809 806.704 996.575 804.211 1000.49 801.054L996.727 796.383ZM984.349 802.975L982.384 797.305C978.208 798.752 973.23 799.538 967.356 799.538V805.538V811.538C974.276 811.538 980.626 810.615 986.313 808.644L984.349 802.975ZM952.049 756.612V762.612H978.489V756.612V750.612H952.049V756.612ZM978.489 756.612H984.489V754.708H978.489H972.489V756.612H978.489ZM978.489 754.708H984.489C984.489 750.968 983.983 747.442 982.774 744.286L977.171 746.432L971.568 748.578C972.117 750.011 972.489 752.003 972.489 754.708H978.489ZM977.171 746.432L982.827 744.429C981.604 740.975 979.475 738.071 976.398 736.019L973.069 741.012L969.741 746.004C970.472 746.492 971.078 747.201 971.515 748.435L977.171 746.432ZM973.069 741.012L976.457 736.06C973.326 733.918 969.619 733.107 965.818 733.107V739.107V745.107C967.975 745.107 969.101 745.567 969.681 745.964L973.069 741.012ZM965.818 739.107V733.107C961.859 733.107 958.12 734.19 954.965 736.635L958.641 741.378L962.316 746.12C963.067 745.538 964.113 745.107 965.818 745.107V739.107ZM958.641 741.378L955.041 736.578C952.132 738.759 949.995 741.675 948.522 745.068L954.026 747.457L959.53 749.846C960.304 748.063 961.243 746.926 962.241 746.178L958.641 741.378ZM954.026 747.457L948.485 745.157C947.167 748.333 946.316 751.81 945.871 755.535L951.829 756.246L957.787 756.957C958.123 754.139 958.738 751.757 959.568 749.757L954.026 747.457ZM951.829 756.246L946.684 759.333L946.904 759.699L952.049 756.612L957.194 753.525L956.974 753.159L951.829 756.246ZM1002.07 813.155L996.465 811.023L993.374 819.155H1002.07V813.155ZM1046.09 697.359V691.359H1041.95L1040.48 695.227L1046.09 697.359ZM1065.79 697.359L1071.4 699.491L1074.49 691.359H1065.79V697.359ZM1021.78 813.155V819.155H1025.91L1027.38 815.287L1021.78 813.155ZM1002.07 813.155L1007.68 815.287L1051.7 699.491L1046.09 697.359L1040.48 695.227L996.465 811.023L1002.07 813.155ZM1046.09 697.359V703.359H1065.79V697.359V691.359H1046.09V697.359ZM1065.79 697.359L1060.19 695.227L1016.17 811.023L1021.78 813.155L1027.38 815.287L1071.4 699.491L1065.79 697.359ZM1021.78 813.155V807.155H1002.07V813.155V819.155H1021.78V813.155ZM1069.68 799.605H1063.68V808.644L1072.01 805.135L1069.68 799.605ZM1069.68 779.83L1067.57 774.21L1063.68 775.668V779.83H1069.68ZM1108.05 765.475L1106.8 759.606L1106.37 759.699L1105.95 759.855L1108.05 765.475ZM1112.52 764.522L1113.77 770.391L1118.52 769.379V764.522H1112.52ZM1112.52 764.083H1118.52V759.526L1114.13 758.303L1112.52 764.083ZM1108.05 762.838L1106.02 768.482L1106.23 768.558L1106.44 768.618L1108.05 762.838ZM1069.68 748.995H1063.68V753.209L1067.64 754.639L1069.68 748.995ZM1069.68 729.293L1072 723.761L1063.68 720.264V729.293H1069.68ZM1133.47 756.1H1139.47V752.113L1135.79 750.568L1133.47 756.1ZM1133.47 772.726L1135.8 778.255L1139.47 776.708V772.726H1133.47ZM1069.68 799.605H1075.68V779.83H1069.68H1063.68V799.605H1069.68ZM1069.68 779.83L1071.78 785.45L1110.16 771.094L1108.05 765.475L1105.95 759.855L1067.57 774.21L1069.68 779.83ZM1108.05 765.475L1109.31 771.343L1113.77 770.391L1112.52 764.522L1111.27 758.654L1106.8 759.606L1108.05 765.475ZM1112.52 764.522H1118.52V764.083H1112.52H1106.52V764.522H1112.52ZM1112.52 764.083L1114.13 758.303L1109.67 757.058L1108.05 762.838L1106.44 768.618L1110.91 769.863L1112.52 764.083ZM1108.05 762.838L1110.09 757.194L1071.71 743.351L1069.68 748.995L1067.64 754.639L1106.02 768.482L1108.05 762.838ZM1069.68 748.995H1075.68V729.293H1069.68H1063.68V748.995H1069.68ZM1069.68 729.293L1067.35 734.824L1131.15 761.631L1133.47 756.1L1135.79 750.568L1072 723.761L1069.68 729.293ZM1133.47 756.1H1127.47V772.726H1133.47H1139.47V756.1H1133.47ZM1133.47 772.726L1131.14 767.196L1067.35 794.076L1069.68 799.605L1072.01 805.135L1135.8 778.255L1133.47 772.726Z" fill="#3B1F91" mask="url(#path-6-outside-2_3_37)"/>
</g>
<defs>
<filter id="filter0_d_3_37" x="135" y="470" width="1230" height="569" filterUnits="userSpaceOnUse" color-interpolation-filters="sRGB">
<feFlood flood-opacity="0" result="BackgroundImageFix"/>
<feColorMatrix in="SourceAlpha" type="matrix" values="0 0 0 0 0 0 0 0 0 0 0 0 0 0 0 0 0 0 127 0" result="hardAlpha"/>
<feOffset dy="4"/>
<feGaussianBlur stdDeviation="10"/>
<feComposite in2="hardAlpha" operator="out"/>
<feColorMatrix type="matrix" values="0 0 0 0 0 0 0 0 0 0 0 0 0 0 0 0 0 0 0.25 0"/>
<feBlend mode="normal" in2="BackgroundImageFix" result="effect1_dropShadow_3_37"/>
<feBlend mode="normal" in="SourceGraphic" in2="effect1_dropShadow_3_37" result="shape"/>
</filter>
<filter id="filter1_d_3_37" x="195.4" y="407" width="633.547" height="688" filterUnits="userSpaceOnUse" color-interpolation-filters="sRGB">
<feFlood flood-opacity="0" result="BackgroundImageFix"/>
<feColorMatrix in="SourceAlpha" type="matrix" values="0 0 0 0 0 0 0 0 0 0 0 0 0 0 0 0 0 0 127 0" result="hardAlpha"/>
<feOffset dy="5"/>
<feGaussianBlur stdDeviation="60"/>
<feComposite in2="hardAlpha" operator="out"/>
<feColorMatrix type="matrix" values="0 0 0 0 0 0 0 0 0 0 0 0 0 0 0 0 0 0 0.25 0"/>
<feBlend mode="normal" in2="BackgroundImageFix" result="effect1_dropShadow_3_37"/>
<feBlend mode="normal" in="SourceGraphic" in2="effect1_dropShadow_3_37" result="shape"/>
</filter>
<filter id="filter2_d_3_37" x="580.907" y="568.742" width="678.562" height="375.413" filterUnits="userSpaceOnUse" color-interpolation-filters="sRGB">
<feFlood flood-opacity="0" result="BackgroundImageFix"/>
<feColorMatrix in="SourceAlpha" type="matrix" values="0 0 0 0 0 0 0 0 0 0 0 0 0 0 0 0 0 0 127 0" result="hardAlpha"/>
<feOffset dy="5"/>
<feGaussianBlur stdDeviation="60"/>
<feComposite in2="hardAlpha" operator="out"/>
<feColorMatrix type="matrix" values="0 0 0 0 0 0 0 0 0 0 0 0 0 0 0 0 0 0 0.25 0"/>
<feBlend mode="normal" in2="BackgroundImageFix" result="effect1_dropShadow_3_37"/>
<feBlend mode="normal" in="SourceGraphic" in2="effect1_dropShadow_3_37" result="shape"/>
</filter>
</defs>
</svg>
